<?xml version="1.0" encoding="UTF-8"?>
<svg width="60px" height="60px" viewBox="0 0 60 60" version="1.1" xmlns="http://www.w3.org/2000/svg" xmlns:xlink="http://www.w3.org/1999/xlink">
    <!-- Generator: Sketch 61 (89581) - https://sketch.com -->
    <title>Icon3@3x</title>
    <desc>Created with Sketch.</desc>
    <g id="页面-2" stroke="none" stroke-width="1" fill="none" fill-rule="evenodd">
        <g id="系统首页" transform="translate(-1018.000000, -136.000000)" fill="#55D187">
            <g id="1" transform="translate(234.000000, 120.000000)">
                <g id="Total-Sales" transform="translate(598.000000, 0.000000)">
                    <g id="Icon3" transform="translate(186.000000, 16.000000)">
                        <path d="M23,60 C10.2974508,60 1.55561363e-15,49.7025492 0,37 L0,23 C-1.55561363e-15,10.2974508 10.2974508,2.33342044e-15 23,0 L37,0 C49.7025492,-2.33342044e-15 60,10.2974508 60,23 L60,37 C60,49.7025492 49.7025492,60 37,60 L23,60 Z" id="Circle-2" opacity="0.209999993"></path>
                        <g id="icon" transform="translate(16.000000, 16.000000)" fill-rule="nonzero">
                            <path d="M3.11111111,24.8888889 L26.4444444,24.8888889 C27.3035541,24.8888889 28,25.5853348 28,26.4444444 C28,27.3035541 27.3035541,28 26.4444444,28 L1.55555556,28 C0.696445945,28 0,27.3035541 0,26.4444444 L0,1.55555556 C0,0.696445945 0.696445945,0 1.55555556,0 C2.41466517,0 3.11111111,0.696445945 3.11111111,1.55555556 L3.11111111,24.8888889 Z" id="Path-95"></path>
                            <path d="M8.91261343,18.1750195 C8.32503303,18.801772 7.34062178,18.8335272 6.71386936,18.2459468 C6.08711693,17.6583664 6.05536173,16.6739551 6.64294213,16.0472027 L12.4762755,9.82498047 C13.044535,9.21883699 13.9888279,9.16627114 14.6208522,9.70559855 L19.2248856,13.6343737 L25.2235157,6.03610888 C25.7558581,5.36180856 26.7340352,5.24672889 27.4083356,5.77907125 C28.0826359,6.31141362 28.1977156,7.28959079 27.6653732,7.96389112 L20.6653732,16.8305578 C20.118618,17.5231144 19.1059101,17.6227201 18.4347034,17.049957 L13.7306235,13.0358088 L8.91261343,18.1750195 Z" id="Path-97" opacity="0.657133557"></path>
                        </g>
                    </g>
                </g>
            </g>
        </g>
    </g>
</svg>