<?xml version="1.0" standalone="no"?><!DOCTYPE svg PUBLIC "-//W3C//DTD SVG 1.1//EN" "http://www.w3.org/Graphics/SVG/1.1/DTD/svg11.dtd"><svg t="1690440743607" class="icon" viewBox="0 0 1024 1024" version="1.1" xmlns="http://www.w3.org/2000/svg" p-id="4229" xmlns:xlink="http://www.w3.org/1999/xlink" width="128" height="128"><path d="M828.45 822.75c79.45-80.04 128.65-189.7 128.65-310.62 0-244.36-198.8-443.16-443.16-443.16-246.39 0-446.84 198.8-446.84 443.16s198.8 443.16 443.16 443.16c121.79 0 232.24-48.69 312.92-127.33l5.64 0.09c0.02-1.84-0.3-3.52-0.37-5.3zM132.22 512.13c0-208.45 171.24-378.03 381.72-378.03 208.45 0 378.03 169.59 378.03 378.03 0 93.83-34.9 179.59-92.26 245.75-35.72-38.86-92.72-58.08-101.86-60.96l-6.88-1.38c-56.9-5.09-78.08-22.46-82.81-30.63v-23.37c59.74-37.73 78.22-119.79 80.3-129.95l0.67-6.54c0-28.38-8.62-45.24-17.84-55.16v-42.82c-0.42-44.29-12.19-76.02-34.98-94.29-12.69-10.16-28.35-15.57-44.6-15.63a3003.49 3003.49 0 0 1-23.43-18.55c-32.2-24.79-80.27-9.47-101.75-0.51-60.81 3.29-90.85 42.39-99.09 65.45l-1.95 5.46 0.77 83.91c0.06 6.76-1.92 10.96-3.18 12.02-24.05 20.09-23.54 54.53-22.82 64.53 1.08 49.99 55.7 103.33 82.49 126.54-0.47 22.4-7.19 37.85-12.27 46.42-37.56 3.32-74.94 10.45-112.06 21.51l-5.99 2.02c-27.92 10.46-51.83 28.2-69.68 51.01-56.31-66.03-90.53-151.45-90.53-244.83z m137.5 291.41c10.83-16.48 26.25-29.38 44.49-36.22l3.85-1.3a498.555 498.555 0 0 1 111.39-19.71l12.02-0.73 8.64-8.38c4.46-4.31 43.41-44.4 37.13-119.59l-1.17-14.04-11.04-8.76c-32.94-26.13-69.66-68.22-69.66-86.84l-0.12-2.76c-0.29-3.79 0.24-9.1 1.1-11.6 16.16-14.36 25.26-36.57 25.04-61.29l-0.65-70.19c4.52-6.77 16.16-18.43 43.02-19.1l7.19-0.04 6.45-2.95c15.2-6.97 36.07-11.53 40.71-10.19 41.92 33.42 41.92 33.42 54.08 33.42l7.11-0.77c0.91-0.2 4.07-0.68 6.27 1.08 4.74 3.79 10.34 17.63 10.6 43.8v48.23c0 15.21 6.05 28.95 16.67 38.17 0.37 1.28 0.9 3.79 1.09 7.97-5.61 23.16-25.02 75.91-60.16 89.62l-20.73 8.08v70.72l0.28 4.23c0.99 7.51 13.19 73.21 138.07 85.66 20.38 6.97 54.65 23.59 71.81 43.43-66.05 54.11-150.73 86.68-242.95 86.68-91.29-0.01-175.12-32.55-240.53-86.63z" fill="#8a8a8a" p-id="4230"></path></svg>