<?xml version="1.0" standalone="no"?><!DOCTYPE svg PUBLIC "-//W3C//DTD SVG 1.1//EN" "http://www.w3.org/Graphics/SVG/1.1/DTD/svg11.dtd"><svg t="1589612493267" class="icon" viewBox="0 0 1024 1024" version="1.1" xmlns="http://www.w3.org/2000/svg" p-id="3230" xmlns:xlink="http://www.w3.org/1999/xlink" width="48" height="48"><defs><style type="text/css"></style></defs><path d="M373.568 623.36c14.4 0 26.048 11.648 26.048 25.984v281.216a25.792 25.792 0 0 1-25.792 25.92H92.608a26.048 26.048 0 0 1-25.984-26.048v-281.088c0-14.336 11.648-25.984 25.984-25.984h280.96z m0-66.56h-280.96C41.6 556.8 0 598.208 0 649.28v280.96c0 51.136 41.536 92.672 92.608 92.672h281.216c50.944 0 92.48-41.6 92.416-92.672v-280.96c0-51.072-41.6-92.608-92.672-92.608z m0-490.24c14.4 0 26.048 11.712 26.048 26.048v281.216a25.792 25.792 0 0 1-25.792 25.92H92.608a26.048 26.048 0 0 1-25.984-26.048V92.608c0-14.336 11.648-25.984 25.984-25.984h280.96z m0-66.56h-280.96C41.6 0 0 41.536 0 92.608v280.96c0 51.136 41.536 92.672 92.608 92.672h281.216c50.944 0 92.48-41.6 92.416-92.672v-280.96C466.24 41.6 424.64 0 373.568 0z m556.8 623.36c14.336 0 25.984 11.648 25.984 25.984v281.216a25.792 25.792 0 0 1-25.792 25.92h-281.216a26.048 26.048 0 0 1-25.984-26.048v-281.088c0-14.336 11.648-25.984 25.984-25.984h280.96z m0-66.56h-280.96c-51.2 0-92.672 41.472-92.672 92.544v280.96c0 51.136 41.536 92.672 92.608 92.672h281.216c50.944 0 92.48-41.6 92.416-92.672v-280.96c0-51.072-41.6-92.608-92.672-92.608z m0-490.24c14.336 0 25.984 11.712 25.984 26.048v281.216a25.792 25.792 0 0 1-25.792 25.92h-281.216a26.048 26.048 0 0 1-25.984-26.048V92.608c0-14.336 11.648-25.984 25.984-25.984h280.96z m0-66.56h-280.96c-51.2 0-92.672 41.536-92.672 92.608v280.96c0 51.136 41.536 92.672 92.608 92.672h281.216c50.944 0 92.48-41.6 92.416-92.672v-280.96C1022.976 41.6 981.376 0 930.304 0z" p-id="3231" ></path></svg>