<svg width="31" height="24" xmlns="http://www.w3.org/2000/svg" xmlns:xlink="http://www.w3.org/1999/xlink"><defs><path id="a" d="M3.5 18.49l6-6.01 4 4L22 6.92l-1.41-1.41-7.09 7.97-4-4L2 16.99z"/><path d="M11.875 5.625l.781-1.719 1.719-.781-1.719-.781-.781-1.719-.781 1.719-1.719.781 1.719.781.781 1.719zm-4.688.313L5.625 2.5 4.062 5.938.626 7.5l3.438 1.563L5.625 12.5l1.563-3.438L10.624 7.5 7.187 5.937zm4.688 3.437l-.781 1.719-1.719.781 1.719.781.781 1.719.781-1.719 1.719-.781-1.719-.781-.781-1.719z" id="c"/><path d="M19 9l1.25-2.75L23 5l-2.75-1.25L19 1l-1.25 2.75L15 5l2.75 1.25L19 9zm-7.5.5L9 4 6.5 9.5 1 12l5.5 2.5L9 20l2.5-5.5L17 12l-5.5-2.5zM19 15l-1.25 2.75L15 19l2.75 1.25L19 23l1.25-2.75L23 19l-2.75-1.25L19 15z" id="e"/><path d="M11.875 5.625l.781-1.719 1.719-.781-1.719-.781-.781-1.719-.781 1.719-1.719.781 1.719.781.781 1.719zm-4.688.313L5.625 2.5 4.062 5.938.626 7.5l3.438 1.563L5.625 12.5l1.563-3.438L10.624 7.5 7.187 5.937zm4.688 3.437l-.781 1.719-1.719.781 1.719.781.781 1.719.781-1.719 1.719-.781-1.719-.781-.781-1.719z" id="g"/></defs><g fill="none" fill-rule="evenodd"><g transform="translate(6 3)"><mask id="b" fill="#fff"><use xlink:href="#a"/></mask><g mask="url(#b)" fill="#5F6368"><path d="M0 0h24v24H0z"/></g></g><g transform="rotate(90 3.5 5.5)"><mask id="d" fill="#fff"><use xlink:href="#c"/></mask><g mask="url(#d)" fill="#5F6368"><path d="M8.125 0H15v6.25H8.125z"/></g></g><g transform="rotate(90 14.5 1.5)"><mask id="f" fill="#fff"><use xlink:href="#e"/></mask><g mask="url(#f)" fill="#5F6368"><path d="M13 0h11v10H13z"/></g></g><g transform="rotate(90 12.5 9.5)"><mask id="h" fill="#fff"><use xlink:href="#g"/></mask><g mask="url(#h)" fill="#5F6368"><path d="M8.125 0H15v6.25H8.125z"/></g></g></g></svg>