<?xml version="1.0" encoding="UTF-8"?>
<svg width="40px" height="40px" viewBox="0 0 40 40" version="1.1" xmlns="http://www.w3.org/2000/svg" xmlns:xlink="http://www.w3.org/1999/xlink">
    <title>编组 14</title>
    <g id="页面-1" stroke="none" stroke-width="0" fill="none" fill-rule="evenodd">
        <g id="入库产品明细-托码明细" transform="translate(-48.000000, -165.000000)">
            <g id="编组-14" transform="translate(48.000000, 165.000000)">
                <circle id="椭圆形" fill="#85BBFF" cx="20" cy="20" r="20"></circle>
                <path d="M29.9840788,17.1671452 C29.9371381,16.9011556 29.7867191,16.6646008 29.565753,16.5092694 L20.6040692,10.1852146 C20.2427714,9.9382618 19.7669723,9.9382618 19.4056745,10.1852146 L10.4464088,16.5092694 C10.1435922,16.7139689 9.97428159,17.0657224 10.0031869,17.4300907 C10.0320923,17.7944591 10.2547454,18.1151181 10.586049,18.2695128 C10.9173526,18.4239076 11.3060936,18.3881717 11.6036964,18.1759633 L12.1122967,17.8169608 L12.1122967,24.8013094 L15.8694913,24.8013094 L15.8694913,23.6253222 C15.8691717,23.5836634 15.8920258,23.5452774 15.9288015,23.5257043 C15.9655772,23.5061312 16.0101825,23.5086134 16.0445595,23.5321459 L19.8262572,26.1357607 C19.8666192,26.163703 19.8907038,26.2096695 19.8907038,26.2587598 C19.8907038,26.3078501 19.8666192,26.3538166 19.8262572,26.3817589 L16.0447207,28.9707041 C16.0101952,28.9934429 15.9659994,28.9954819 15.9295269,28.9760186 C15.8930543,28.9565554 15.8701445,28.9187061 15.8698138,28.8773667 L15.8698138,27.5807984 L12.1122967,27.5807984 L12.1122967,29.0820964 C12.1118641,29.3652774 12.2234795,29.6371298 12.4227767,29.838307 C12.621232,30.0384224 12.8915109,30.1508065 13.1733451,30.1504002 L26.8376882,30.1504002 C27.1194176,30.1504002 27.3894951,30.0379667 27.587773,29.8378234 C27.7870995,29.636824 27.8988778,29.3651721 27.8987366,29.0820964 L27.8987366,17.8169608 L28.4060474,18.1759633 C28.6257454,18.3310865 28.8981593,18.3923673 29.1631226,18.3462709 C29.4280859,18.3001745 29.6637983,18.1504937 29.8181993,17.9302876 C29.9719228,17.7077163 30.0315391,17.4334465 29.9840788,17.1671452 L29.9840788,17.1671452 Z M19.4883725,21.3379907 C19.4883725,21.4272613 19.4529099,21.5128756 19.389786,21.5759994 C19.3266622,21.6391232 19.2410479,21.6745859 19.1517773,21.6745859 L16.7232307,21.6745859 C16.6339322,21.6746286 16.5482765,21.6391849 16.4851178,21.5760564 C16.4219591,21.5129279 16.3864744,21.4272892 16.3864744,21.3379907 L16.3864744,20.2740406 C16.3864744,20.1847421 16.4219591,20.0991034 16.4851178,20.0359749 C16.5482765,19.9728465 16.6339322,19.9374027 16.7232307,19.9374455 L19.1524222,19.9374455 C19.3383185,19.9374455 19.4890173,20.0881443 19.4890173,20.2740406 L19.4883725,21.3379907 Z M19.4883725,18.5585017 C19.4883725,18.7443981 19.3376737,18.8950969 19.1517773,18.8950969 L16.7232307,18.8950969 C16.6339322,18.8951396 16.5482765,18.8596959 16.4851178,18.7965674 C16.4219591,18.733439 16.3864744,18.6478002 16.3864744,18.5585017 L16.3864744,17.4945517 C16.3864744,17.4052531 16.4219591,17.3196144 16.4851178,17.256486 C16.5482765,17.1933575 16.6339322,17.1579138 16.7232307,17.1579565 L19.1524222,17.1579565 C19.3383185,17.1579565 19.4890173,17.3086553 19.4890173,17.4945517 L19.4883725,18.5585017 Z M23.6240754,21.3379907 C23.6240754,21.4272613 23.5886128,21.5128756 23.525489,21.5759994 C23.4623651,21.6391232 23.3767508,21.6745859 23.2874803,21.6745859 L20.8589336,21.6745859 C20.7696351,21.6746286 20.6839794,21.6391849 20.6208207,21.5760564 C20.557662,21.5129279 20.5221773,21.4272892 20.5221773,21.3379907 L20.5221773,20.2740406 C20.5221773,20.1847421 20.557662,20.0991034 20.6208207,20.0359749 C20.6839794,19.9728465 20.7696351,19.9374027 20.8589336,19.9374455 L23.2874803,19.9374455 C23.4733766,19.9374455 23.6240754,20.0881443 23.6240754,20.2740406 L23.6240754,21.3379907 Z M23.6240754,18.5585017 C23.6240754,18.7443981 23.4733766,18.8950969 23.2874803,18.8950969 L20.8589336,18.8950969 C20.7696351,18.8951396 20.6839794,18.8596959 20.6208207,18.7965674 C20.557662,18.733439 20.5221773,18.6478002 20.5221773,18.5585017 L20.5221773,17.4945517 C20.5221773,17.4052531 20.557662,17.3196144 20.6208207,17.256486 C20.6839794,17.1933575 20.7696351,17.1579138 20.8589336,17.1579565 L23.2874803,17.1579565 C23.4733766,17.1579565 23.6240754,17.3086553 23.6240754,17.4945517 L23.6240754,18.5585017 Z" id="形状" fill="#FFFFFF" fill-rule="nonzero"></path>
            </g>
        </g>
    </g>
</svg>