<?xml version="1.0" encoding="UTF-8"?>
<svg width="18px" height="18px" viewBox="0 0 18 18" version="1.1"
    xmlns="http://www.w3.org/2000/svg"
    xmlns:xlink="http://www.w3.org/1999/xlink">
    <title>盒子标签</title>
    <g id="页面-1" stroke="none" stroke-width="0" fill="none" fill-rule="evenodd">
        <g id="添加盒码" transform="translate(-48.000000, -167.000000)">
            <g id="编组" transform="translate(48.000000, 166.000000)">
                <g id="盒子标签" transform="translate(0.000000, 1.000000)">
                    <circle id="椭圆形" fill="#85BBFF" cx="9" cy="9" r="9"></circle>
                    <rect id="矩形" fill="#000000" fill-rule="nonzero" opacity="0" x="2" y="2" width="14" height="14"></rect>
                    <path d="M10.5818432,6.696011 L10.5818432,10.2929849 C10.5818432,10.389271 10.4786795,10.4580468 10.389271,10.4236589 L9.15130674,9.91471802 C9.05502063,9.87345254 8.95185695,9.87345254 8.85557084,9.91471802 L7.6176066,10.4236589 C7.52819807,10.4580468 7.42503439,10.3961486 7.42503439,10.2929849 L7.42503439,6.696011 L4,6.696011 L4,13.7524072 C4,13.9037139 4.12379642,14.0275103 4.27510316,14.0275103 L13.7248968,14.0275103 C13.8762036,14.0275103 14,13.9037139 14,13.7524072 L14,6.696011 L10.5818432,6.696011 Z M13.9862448,6.303989 C13.9793673,6.26272352 13.9587345,6.22145805 13.9312242,6.18707015 L12.2462173,4.10316369 C12.1911967,4.04126547 12.1155433,4 12.0330124,4 L6.00137552,4 C5.91884457,4 5.8431912,4.0343879 5.78817056,4.09628611 L4.06189821,6.18707015 C4.0343879,6.22145805 4.01375516,6.26272352 4.00687758,6.303989 L13.9862448,6.303989 Z" id="形状" fill="#FFFFFF" fill-rule="nonzero"></path>
                </g>
            </g>
        </g>
    </g>
</svg>