<?xml version="1.0" standalone="no"?><!DOCTYPE svg PUBLIC "-//W3C//DTD SVG 1.1//EN" "http://www.w3.org/Graphics/SVG/1.1/DTD/svg11.dtd">
<svg t="1694418142219" class="icon" viewBox="0 0 1024 1024" version="1.1"
    xmlns="http://www.w3.org/2000/svg" p-id="7240"
    xmlns:xlink="http://www.w3.org/1999/xlink" width="128" height="128">
    <path d="M488.7 139.9c-217.5 0-393.8 176.7-393.8 394.6s176.3 394.6 393.8 394.6 393.8-176.7 393.8-394.6H488.7V139.9z" fill="#FFFFFF" p-id="7241"></path>
    <path d="M488.7 960c-57.3 0-113-11.3-165.3-33.5-50.6-21.4-96-52.1-135-91.2s-69.6-84.6-91-135.2C75.2 647.6 64 591.9 64 534.5c0-57.4 11.2-113.1 33.4-165.6 21.4-50.7 52-96.2 91-135.2 39-39.1 84.4-69.8 135-91.2 52.4-22.2 108-33.5 165.3-33.5h30.9v394.6h393.8v30.9c0 57.4-11.2 113.1-33.4 165.6-21.4 50.7-52 96.2-91 135.2-39 39.1-84.4 69.8-135 91.2-52.3 22.2-108 33.5-165.3 33.5z m-30.9-787.9c-185.7 15.8-332 172.3-332 362.4 0 200.6 162.8 363.7 362.9 363.7 189.7 0 345.9-146.7 361.6-332.8H457.8V172.1z" fill="#eff3ff" p-id="7242"></path>
    <path d="M579.6 443.4H960C960 261.3 789.6 64 580.5 64" fill="#eff3ff" p-id="7243"></path>
</svg>