<?xml version="1.0" standalone="no"?><!DOCTYPE svg PUBLIC "-//W3C//DTD SVG 1.1//EN" "http://www.w3.org/Graphics/SVG/1.1/DTD/svg11.dtd"><svg t="1642142836643" class="icon" viewBox="0 0 1024 1024" version="1.1" xmlns="http://www.w3.org/2000/svg" p-id="2116" xmlns:xlink="http://www.w3.org/1999/xlink" width="200" height="200"><defs><style type="text/css"></style></defs><path d="M512 128C300.8 128 128 300.8 128 512s172.8 384 384 384 384-172.8 384-384S723.2 128 512 128zM672 627.2c12.8 12.8 12.8 32 0 44.8s-32 12.8-44.8 0L512 556.8l-115.2 115.2c-12.8 12.8-32 12.8-44.8 0s-12.8-32 0-44.8L467.2 512 352 396.8C339.2 384 339.2 364.8 352 352s32-12.8 44.8 0L512 467.2l115.2-115.2c12.8-12.8 32-12.8 44.8 0s12.8 32 0 44.8L556.8 512 672 627.2z" p-id="2117"></path></svg>