<?xml version="1.0" encoding="UTF-8"?>
<svg width="18px" height="18px" viewBox="0 0 18 18" version="1.1"
    xmlns="http://www.w3.org/2000/svg"
    xmlns:xlink="http://www.w3.org/1999/xlink">
    <title>火箭</title>
    <g id="页面-1" stroke="none" stroke-width="0" fill="none" fill-rule="evenodd">
        <g id="添加盒码" transform="translate(-984.000000, -285.000000)">
            <g id="编组-7" transform="translate(984.000000, 284.000000)">
                <g id="火箭" transform="translate(0.000000, 1.000000)">
                    <circle id="椭圆形" fill="#85BBFF" cx="9" cy="9" r="9"></circle>
                    <rect id="矩形" fill="#000000" fill-rule="nonzero" opacity="0" x="3" y="3" width="12" height="12"></rect>
                    <path d="M7.23475,10.86325 C7.81575,11.45375 7.88299999,12.0885 7.239,12.743 C6.84,13.14825 6.194,13.39175 5.305,13.496 C5.259,13.5015 5.2125,13.50125 5.16625,13.49575 C4.85374999,13.45775 4.6255,13.18 4.6405,12.86275 L4.64375,12.82125 L4.6565,12.71625 C4.7655,11.86875 5.0015,11.24825 5.38475,10.85875 C6.02875001,10.2045 6.65350001,10.273 7.23475,10.86325 L7.23475,10.86325 Z M6.73125,11.375 C6.40875,11.04725 6.23,11.0275 5.8905,11.3725 C5.671,11.5955 5.50525,11.98375 5.406,12.5385 L5.39025,12.6325 L5.372,12.7555 L5.40125,12.75175 C5.98525001,12.6655 6.40325,12.51 6.658,12.29825 L6.69875,12.26225 L6.73325,12.229 C7.073,11.884 7.05375,11.70275 6.73125,11.375 L6.73125,11.375 Z M12.75625,4.7235 C13.0012916,4.80941737 13.1931642,5.00331842 13.2765,5.24925 C13.66825,6.39375 13.54375,7.55325 12.91225,8.70275 C12.652,9.17625 12.319,9.6245 11.91375,10.04725 L11.8015,10.162 L11.69525,10.266 L11.69225,10.29825 C11.6185,10.98675 11.09625,11.89725 10.134,13.0745 L10.0505,13.17625 L9.89675,13.36 C9.72275,13.5665 9.39875,13.509 9.29725,13.265 L9.28525,13.23225 L8.74725,11.51525 L8.6985,11.4815 C8.39619889,11.2661428 8.10825528,11.0313117 7.8365,10.7785 L7.70275,10.651 L7.57175,10.521 C7.18481217,10.1272499 6.83654952,9.69727953 6.53175,9.237 L6.502,9.19075 L4.75,8.62425 C4.50349999,8.54425 4.42399999,8.2395 4.5805,8.048 L4.60125,8.0245 L4.62375,8.0035 C6.06475,6.74449999 7.128,6.12025 7.8895,6.17225 L7.9385,6.1765 L7.967,6.18 L8.03125,6.115 C8.37675,5.7715 8.7385,5.47924999 9.11675,5.239 L9.24325,5.16075 L9.3595,5.09275 C10.415,4.49425 11.4865,4.347 12.5575,4.66025 L12.658,4.69075 L12.75625,4.7235 L12.75625,4.7235 Z M12.59375,5.4645 C12.5835261,5.44596891 12.5686112,5.43045049 12.5505,5.4195 L12.5325,5.411 L12.4425,5.381 C11.53475,5.09125001 10.63125,5.2035 9.7095,5.72625 C9.22975,5.9985 8.7745,6.3655 8.34375,6.82875 C8.25552425,6.92412046 8.12193859,6.96313901 7.99625,6.93025 L7.9365,6.911 C7.5665,6.80225 6.80725,7.16175 5.72325,8.0245 L5.58625,8.1345 L6.83675,8.5395 C6.89350001,8.55775 6.94425,8.59 6.98525,8.633 L7.00875,8.66 L7.0295,8.68925 C7.33029236,9.16508574 7.68084791,9.60757516 8.07525,10.00925 C8.4331537,10.3725689 8.82577746,10.6999647 9.2475,10.98675 C9.30525,11.026 9.35025,11.0815 9.3775,11.146 L9.3895,11.179 L9.767,12.38225 L9.8395,12.29 C10.5765,11.34225 10.95625,10.6285 10.98575,10.1865 L10.9875,10.146 L10.9875,10.111 C10.9841949,10.0061747 11.0262955,9.90502401 11.103,9.8335 C11.605,9.3685 11.99975,8.87325 12.28875,8.34725 C12.8065,7.40475 12.9185,6.48875 12.6325,5.576 L12.6025,5.48475 L12.59375,5.46475 L12.59375,5.4645 Z M11.095,6.905 C11.633,7.44325001 11.635,8.31375 11.099,8.8495 C10.56325,9.3855 9.69275,9.3835 9.1545,8.8455 C8.6165,8.30725 8.6145,7.43675 9.1505,6.901 C9.68625,6.36499999 10.55675,6.367 11.095,6.905 L11.095,6.905 Z M10.56575,7.43425 C10.4488005,7.31673853 10.2899533,7.25050789 10.1241643,7.2501312 C9.9583753,7.24975772 9.79923002,7.31526892 9.68175,7.43225 C9.56476892,7.54973003 9.49925772,7.7088753 9.49963121,7.87466429 C9.5000079,8.04045328 9.56623854,8.1993005 9.68375,8.31625 C9.8006995,8.43376146 9.95954672,8.4999921 10.1253357,8.50036879 C10.2911247,8.50074228 10.45027,8.43523108 10.56775,8.31825 C10.6847311,8.20076998 10.7502423,8.0416247 10.7498688,7.87583571 C10.7494921,7.71004672 10.6832615,7.5511995 10.56575,7.43425 L10.56575,7.43425 Z" id="形状" fill="#FFFFFF" fill-rule="nonzero"></path>
                </g>
            </g>
        </g>
    </g>
</svg>