<?xml version="1.0" encoding="UTF-8"?>
<svg width="58px" height="58px" viewBox="0 0 58 58" version="1.1"
    xmlns="http://www.w3.org/2000/svg"
    xmlns:xlink="http://www.w3.org/1999/xlink">
    <title>编组 11</title>
    <g id="页面-1" stroke="none" stroke-width="0" fill="none" fill-rule="evenodd">
        <g id="首页" transform="translate(-700.000000, -113.000000)">
            <g id="Group-16" transform="translate(656.000000, 87.999904)">
                <g id="编组-11" transform="translate(44.000000, 25.000000)">
                    <circle id="椭圆形" fill-opacity="0.1" fill="#3B8DF8" cx="29" cy="29" r="29"></circle>
                    <g id="传感器" transform="translate(12.000000, 12.000000)" fill-rule="nonzero">
                        <rect id="矩形" fill="#000000" opacity="0" x="0" y="0" width="34" height="34"></rect>
                        <path d="M10.5578947,19.0210526 C10.368421,18.5789474 9.86315788,18.3263158 9.42105263,18.4526316 C8.85263157,18.6421053 8.6,19.2105263 8.78947369,19.7157895 C10.1157895,23 13.2736842,25.2736842 17,25.2736842 C20.7263158,25.2736842 23.8842105,23 25.2105263,19.7157895 C25.4,19.2105263 25.0842105,18.5789474 24.5789474,18.4526316 C24.1368421,18.3263158 23.631579,18.5789474 23.4421053,19.0210526 C22.368421,21.6105263 19.9052632,23.3789474 17,23.3789474 C14.1578947,23.3789474 11.631579,21.5473684 10.5578947,19.0210526 L10.5578947,19.0210526 Z M28.2421053,19.5263158 C27.8,19.4 27.2947368,19.6526316 27.1052632,20.0947368 C25.6526316,24.2 21.6736842,27.168421 17.0631579,27.1684211 C12.4526316,27.1684211 8.4736842,24.2 6.89473684,20.0947368 C6.76842104,19.6526316 6.26315791,19.4 5.75789474,19.5263158 C5.25263157,19.7157895 4.93684212,20.2842105 5.12631577,20.7894737 C6.89473684,25.5894737 11.631579,29.0631579 17,29.0631579 C22.431579,29.0631579 27.1052632,25.5894737 28.8105263,20.7894737 C29,20.2210526 28.6842105,19.6526316 28.2421053,19.5263158 Z M17,21.4842105 C18.9578947,21.4842105 20.6631579,20.3473684 21.4842105,18.7052632 C21.8,18.2 21.4842105,17.5684211 20.9157895,17.3789474 C20.5368421,17.2526316 20.0315789,17.4421053 19.8421053,17.8210526 C19.3368421,18.8947368 18.2631579,19.5894737 17,19.5894737 C15.7368421,19.5894737 14.7263158,18.8947368 14.1578947,17.8210526 C13.9684211,17.4421053 13.5263158,17.2526316 13.0842105,17.3789474 C12.5157895,17.5684211 12.2631579,18.2 12.5157895,18.7052632 C13.4,20.3473684 15.1052632,21.4842105 17,21.4842105 Z M26.4736842,7.52631578 L25.2105263,7.52631578 L25.2105263,6.26315788 C25.2105263,5.56842102 24.6421053,5 23.9473684,5 L10.0526316,5 C9.35789471,5 8.78947366,5.56842105 8.78947369,6.26315788 L8.78947369,7.52631578 L7.52631578,7.52631578 C6.13684211,7.52631578 5,8.66315789 5,10.0526316 L5,12.5789474 C5,13.9684211 6.13684211,15.1052632 7.52631578,15.1052632 L26.4736842,15.1052632 C27.8631579,15.1052632 29,13.9684211 29,12.5789474 L29,10.0526316 C29,8.66315789 27.8631579,7.52631578 26.4736842,7.52631578 Z M10.0526316,12.5789474 C9.35789471,12.5789474 8.78947369,12.0105263 8.78947369,11.3157895 C8.78947369,10.6210526 9.35789474,10.0526316 10.0526316,10.0526316 C10.7473684,10.0526316 11.3157895,10.6210526 11.3157895,11.3157895 C11.3157895,12.0105263 10.7473684,12.5789474 10.0526316,12.5789474 Z M14.4736842,12.5789474 C13.7789474,12.5789474 13.2105263,12.0105263 13.2105263,11.3157895 C13.2105263,10.6210526 13.7789474,10.0526316 14.4736842,10.0526316 C15.1684211,10.0526316 15.7368421,10.6210526 15.7368421,11.3157895 C15.7368421,12.0105263 15.168421,12.5789474 14.4736842,12.5789474 Z M18.8947368,12.5789474 C18.2,12.5789474 17.6315789,12.0105263 17.6315789,11.3157895 C17.6315789,10.6210526 18.2,10.0526316 18.8947368,10.0526316 C19.5894737,10.0526316 20.1578947,10.6210526 20.1578947,11.3157895 C20.1578947,12.0105263 19.5894737,12.5789474 18.8947368,12.5789474 Z M23.3157895,12.5789474 C22.6210526,12.5789474 22.0526316,12.0105263 22.0526316,11.3157895 C22.0526316,10.6210526 22.6210526,10.0526316 23.3157895,10.0526316 C24.0105263,10.0526316 24.5789474,10.6210526 24.5789474,11.3157895 C24.5789474,12.0105263 24.0105263,12.5789474 23.3157895,12.5789474 Z" id="形状" fill="#3B8DF8"></path>
                    </g>
                </g>
            </g>
        </g>
    </g>
</svg>