<?xml version="1.0" encoding="UTF-8"?>
<svg width="58px" height="58px" viewBox="0 0 58 58" version="1.1" xmlns="http://www.w3.org/2000/svg" xmlns:xlink="http://www.w3.org/1999/xlink">
    <title>待评价</title>
    <g id="页面-1" stroke="none" stroke-width="0" fill="none" fill-rule="evenodd">
        <g id="首页" transform="translate(-384.000000, -113.000000)">
            <g id="Group-16" transform="translate(340.000000, 87.999904)">
                <g id="待评价" transform="translate(44.000000, 25.000000)">
                    <circle id="椭圆形" fill-opacity="0.1" fill="#2EAD31" cx="29" cy="29" r="29"></circle>
                    <g id="快递包裹,箱子" transform="translate(13.000000, 13.000000)" fill-rule="nonzero">
                        <rect id="矩形" fill="#000000" opacity="0" x="0" y="0" width="32" height="32"></rect>
                        <path d="M32,22.146875 C32,23.284375 31.359375,24.321875 30.340625,24.83125 C30.340625,24.83125 22.18125,28.903125 18.625,30.66875 C17.878125,31.040625 17,30.496875 17,29.659375 L17,14.2625 C17,13.628125 17.4,13.0625 17.99375,12.85 L22.2875,11.315625 C22.36875,11.2875 22.453125,11.346875 22.453125,11.434375 L22.453125,17.596875 C22.453125,17.78125 22.65,17.903125 22.815625,17.821875 L24.178125,17.140625 C24.346875,17.05625 24.453125,16.88125 24.453125,16.69375 L24.453125,10.715625 C24.453125,10.609375 24.51875,10.515625 24.61875,10.48125 L30.9875,8.20625 C31.475,8.03125 31.990625,8.39375 31.990625,8.9125 C32,12.221875 32,22.146875 32,22.146875 L32,22.146875 Z M15,14.25625 L15,29.58125 C15,30.43125 14.090625,30.975 13.34375,30.571875 L1.58125,24.25625 C0.609375,23.734375 0,22.71875 0,21.6125 C0,21.6125 0.003125,12.103125 0.009375,8.8625 C0.009375,8.34375 0.525,7.98125 1.0125,8.159375 L14.009375,12.84375 C14.603125,13.059375 15,13.621875 15,14.25625 Z M30.590625,6.225 L24.09375,8.546875 C23.978125,8.5875 23.85,8.584375 23.7375,8.540625 L9.38125,2.715625 C9.275,2.671875 9.278125,2.521875 9.384375,2.48125 L14.95,0.39375 C15.290625,0.265625 15.646875,0.203125 16.003125,0.203125 C16.359375,0.203125 16.7125,0.265625 17.053125,0.390625 L30.05,5.240625 C30.275,5.325 30.484375,5.434375 30.678125,5.5625 C30.93125,5.734375 30.878125,6.121875 30.590625,6.225 Z M20.4875,9.371875 C20.7,9.459375 20.69375,9.7625 20.478125,9.8375 L17.0125,11.075 C16.35625,11.309375 15.640625,11.309375 14.984375,11.071875 L1.484375,6.203125 C1.190625,6.096875 1.146875,5.7 1.409375,5.534375 C1.578125,5.43125 1.75625,5.340625 1.946875,5.26875 L6.1375,3.7 C6.25625,3.65625 6.384375,3.65625 6.5,3.70625 L20.4875,9.371875 L20.4875,9.371875 Z" id="形状" fill="#2EAD31"></path>
                    </g>
                </g>
            </g>
        </g>
    </g>
</svg>