<?xml version="1.0" encoding="UTF-8"?>
<svg width="58px" height="58px" viewBox="0 0 58 58" version="1.1" xmlns="http://www.w3.org/2000/svg" xmlns:xlink="http://www.w3.org/1999/xlink">
    <title>编组 12</title>
    <g id="页面-1" stroke="none" stroke-width="0" fill="none" fill-rule="evenodd">
        <g id="首页" transform="translate(-1016.000000, -113.000000)">
            <g id="Group-16" transform="translate(972.000000, 87.999904)">
                <g id="编组-12" transform="translate(44.000000, 25.000000)">
                    <circle id="椭圆形" fill-opacity="0.1" fill="#30CB40" cx="29" cy="29" r="29"></circle>
                    <g id="进出库" transform="translate(13.000000, 13.000000)" fill-rule="nonzero">
                        <rect id="矩形" fill="#000000" opacity="0" x="0" y="0" width="32" height="32"></rect>
                        <path d="M29.326,10.068 C29.664,10.642 29.84,11.284 29.86,11.996 L29.86,25.804 C29.824,26.934 29.432,27.872 28.684,28.62 C27.936,29.368 26.998,29.76 25.868,29.796 L5.85,29.796 C4.72,29.76 3.78,29.368 3.034,28.62 C2.286,27.872 1.894,26.934 1.858,25.804 L1.858,11.996 C1.858,11.286 2.04,10.642 2.404,10.068 C2.768,9.494 3.252,9.006 3.854,8.606 L13.862,2.398 C14.482,1.998 15.178,1.796 15.954,1.796 C16.728,1.796 17.426,1.996 18.046,2.398 L28.054,8.606 C28.564,9.006 28.988,9.494 29.326,10.068 Z M22.258,21.798 C22.514,21.534 22.64,21.196 22.64,20.786 C22.64,20.376 22.512,20.044 22.258,19.788 C22.002,19.532 21.666,19.406 21.246,19.406 L10.664,19.406 C10.354,19.406 10.098,19.484 9.898,19.638 C9.698,19.794 9.552,19.98 9.46,20.198 C9.26,20.508 9.19,20.8 9.254,21.074 C9.31570135,21.3435455 9.453087,21.5898683 9.65,21.784 L13.068,25.994 C13.16,26.104 13.296,26.194 13.478,26.268 C13.66,26.34 13.852,26.378 14.052,26.378 C14.252,26.378 14.444,26.342 14.626,26.268 C14.808,26.196 14.954,26.104 15.064,25.994 C15.374,25.684 15.556,25.352 15.61,24.996 C15.664,24.64 15.546,24.308 15.254,23.998 L13.668,22.194 L21.242,22.194 C21.664,22.196 22.002,22.064 22.258,21.798 Z M9.652,14.594 C9.396,14.85 9.27,15.182 9.27,15.592 C9.27,16.002 9.398,16.334 9.652,16.59 C9.908,16.846 10.244,16.982 10.664,17 L21.246,17 C21.556,16.982 21.81,16.896 22.012,16.74 C22.212,16.586 22.358,16.408 22.45,16.206 C22.56,15.896 22.604,15.6 22.586,15.318 C22.568,15.036 22.458,14.794 22.258,14.594 L18.648,10.41 C18.338,10.1 18.006,9.946 17.65,9.946 C17.294,9.946 16.962,10.102 16.652,10.41 C16.36,10.628 16.206,10.934 16.188,11.326 C16.17,11.718 16.26,12.078 16.462,12.406 L18.048,14.184 L10.664,14.184 C10.244,14.202 9.906,14.338 9.652,14.594 L9.652,14.594 Z" id="形状" fill="#30CB40"></path>
                    </g>
                </g>
            </g>
        </g>
    </g>
</svg>