<?xml version="1.0" encoding="UTF-8"?>
<svg width="58px" height="58px" viewBox="0 0 58 58" version="1.1" xmlns="http://www.w3.org/2000/svg" xmlns:xlink="http://www.w3.org/1999/xlink">
    <title>编组 11</title>
    <g id="页面-1" stroke="none" stroke-width="0" fill="none" fill-rule="evenodd">
        <g id="首页" transform="translate(-700.000000, -113.000000)">
            <g id="Group-16" transform="translate(656.000000, 87.999904)">
                <g id="编组-11" transform="translate(44.000000, 25.000000)">
                    <circle id="椭圆形" fill-opacity="0.1" fill="#3B8DF8" cx="29" cy="29" r="29"></circle>
                    <g id="盒子标签" transform="translate(12.000000, 12.000000)" fill-rule="nonzero">
                        <rect id="矩形" fill="#000000" opacity="0" x="0" y="0" width="34" height="34"></rect>
                        <path d="M21.0175682,11.1227715 L21.0175682,20.2982656 C21.0175682,20.5438811 20.7544087,20.7193207 20.5263371,20.6316009 L17.3684233,19.3333474 C17.1228078,19.2280836 16.8596483,19.2280836 16.6140328,19.3333474 L13.4561189,20.6316009 C13.2280474,20.7193207 12.9648879,20.561425 12.9648879,20.2982656 L12.9648879,11.1227715 L4.22799295,11.1227715 L4.22799295,29.1228803 C4.22799295,29.5088476 4.54378433,29.824639 4.92975157,29.824639 L29.0351605,29.824639 C29.4211277,29.824639 29.7369191,29.5088476 29.7369191,29.1228803 L29.7369191,11.1227715 L21.0175682,11.1227715 Z M29.7018312,10.1227654 C29.6842872,10.0175016 29.6316553,9.91223784 29.5614795,9.82451801 L25.2632079,4.5086964 C25.1228561,4.35080071 24.9298725,4.24553691 24.7193449,4.24553691 L9.33328697,4.24553691 C9.12275939,4.24553691 8.92977576,4.33325674 8.78942404,4.49115243 L4.38588864,9.82451801 C4.31571277,9.91223784 4.26308088,10.0175016 4.24553691,10.1227654 L29.7018312,10.1227654 Z" id="形状" fill="#3B8DF8"></path>
                    </g>
                </g>
            </g>
        </g>
    </g>
</svg>