<?xml version="1.0" encoding="UTF-8"?>
<svg width="58px" height="58px" viewBox="0 0 58 58" version="1.1"
    xmlns="http://www.w3.org/2000/svg"
    xmlns:xlink="http://www.w3.org/1999/xlink">
    <title>编组 10</title>
    <g id="页面-1" stroke="none" stroke-width="0" fill="none" fill-rule="evenodd">
        <g id="首页" transform="translate(-68.000000, -113.000000)">
            <g id="Group-16" transform="translate(24.000000, 88.000000)">
                <g id="编组-10" transform="translate(44.000000, 25.000000)">
                    <circle id="椭圆形" fill-opacity="0.1" fill="#F7A34B" cx="29" cy="29" r="29"></circle>
                    <g id="地点" transform="translate(12.000000, 12.000000)" fill-rule="nonzero">
                        <rect id="矩形" fill="#000000" opacity="0" x="0" y="0" width="34" height="34"></rect>
                        <path d="M16.9984028,29.5550232 C16.9984028,29.5550232 7,20.1108449 7,14.5558218 C7,8.99920141 10.3333333,4 16.9984028,4 C23.6666667,4 27,8.99920141 27,14.5558218 C27,20.1108449 16.9984028,29.5550232 16.9984028,29.5550232 Z M16.9984028,17.8891551 C18.7847308,17.8891551 20.4353659,16.9361605 21.3285299,15.3891551 C22.2216939,13.8421497 22.2216939,11.9361605 21.3285299,10.3891551 C20.4353659,8.84214966 18.7847308,7.88915509 16.9984028,7.88915509 C14.2374202,7.88915509 11.9992015,10.1273738 11.9992015,12.8883565 C11.9992015,15.6493391 14.2374202,17.8875578 16.9984028,17.8875579 L16.9984028,17.8891551 Z" id="形状" fill="#F7A34B"></path>
                    </g>
                </g>
            </g>
        </g>
    </g>
</svg>