<?xml version="1.0" encoding="UTF-8"?>
<svg width="58px" height="58px" viewBox="0 0 58 58" version="1.1"
    xmlns="http://www.w3.org/2000/svg"
    xmlns:xlink="http://www.w3.org/1999/xlink">
    <title>待评价</title>
    <g id="页面-1" stroke="none" stroke-width="0" fill="none" fill-rule="evenodd">
        <g id="首页" transform="translate(-384.000000, -113.000000)">
            <g id="Group-16" transform="translate(340.000000, 87.999904)">
                <g id="待评价" transform="translate(44.000000, 25.000000)">
                    <circle id="椭圆形" fill-opacity="0.1" fill="#2EAD31" cx="29" cy="29" r="29"></circle>
                    <g id="网关" transform="translate(12.000000, 12.000096)" fill-rule="nonzero">
                        <rect id="矩形" fill="#000000" opacity="0" x="0" y="0" width="34" height="34"></rect>
                        <path d="M24.4171429,15.6857143 L25.5167238,15.6857143 C26.0084933,15.6856546 26.4551457,15.9723439 26.6598857,16.4194667 L28,19.3463048 L28,26.7904762 C28,27.484777 27.437158,28.047619 26.7428571,28.047619 L7.25714286,28.047619 C6.56284203,28.047619 6,27.484777 6,26.7904762 L6,19.3806667 L7.34158095,16.4234476 C7.54539759,15.9742179 7.99311536,15.6857087 8.48641905,15.6857143 L9.58285714,15.6857143 C9.56888619,15.6167491 9.56186694,15.5465566 9.56190476,15.4761905 L9.56190476,6.04761905 C9.56190476,5.46903502 10.0309398,5 10.6095238,5 C11.1881078,5 11.6571429,5.46903502 11.6571429,6.04761905 L11.6571429,15.4761905 C11.6571429,15.5478476 11.650019,15.6180381 11.6361905,15.6857143 L22.3638095,15.6857143 C22.3498386,15.6167491 22.3428193,15.5465566 22.3428571,15.4761905 L22.3428571,6.04761905 C22.3428571,5.46903502 22.8118922,5 23.3904762,5 C23.9690602,5 24.4380952,5.46903502 24.4380952,6.04761905 L24.4380952,15.4761905 C24.4380952,15.5478476 24.4309714,15.6180381 24.4171429,15.6857143 L24.4171429,15.6857143 Z M9.27234286,17.7809524 C9.19300337,17.7809948 9.12049331,17.8258472 9.08502857,17.896819 L8.45645714,19.1539619 C8.42401054,19.2188938 8.42748306,19.2959937 8.46563543,19.357746 C8.5037878,19.4194982 8.57118398,19.4571041 8.64377143,19.4571429 L25.3928952,19.4571429 C25.4615959,19.4571171 25.5259194,19.4234134 25.5650441,19.3669418 C25.6041688,19.3104701 25.6131235,19.2384059 25.5890095,19.1740762 L25.117581,17.9169333 C25.0869316,17.8351689 25.0087868,17.7809852 24.9214667,17.7809524 L9.27234286,17.7809524 L9.27234286,17.7809524 Z M21.4,22.8095238 C20.8792744,22.8095238 20.4571429,23.2316553 20.4571429,23.752381 C20.4571429,24.2731066 20.8792744,24.6952381 21.4,24.6952381 L23.7047619,24.6952381 C24.2254875,24.6952381 24.647619,24.2731066 24.647619,23.752381 C24.647619,23.2316553 24.2254875,22.8095238 23.7047619,22.8095238 L21.4,22.8095238 L21.4,22.8095238 Z M18.047619,22.8095238 C17.5268934,22.8095238 17.1047619,23.2316553 17.1047619,23.752381 C17.1047619,24.2731066 17.5268934,24.6952381 18.047619,24.6952381 L18.4666667,24.6952381 C18.9873923,24.6952381 19.4095238,24.2731066 19.4095238,23.752381 C19.4095238,23.2316553 18.9873923,22.8095238 18.4666667,22.8095238 L18.047619,22.8095238 L18.047619,22.8095238 Z M14.6952381,22.8095238 C14.1745125,22.8095238 13.752381,23.2316553 13.752381,23.752381 C13.752381,24.2731066 14.1745125,24.6952381 14.6952381,24.6952381 L15.1142857,24.6952381 C15.6350113,24.6952381 16.0571429,24.2731066 16.0571429,23.752381 C16.0571429,23.2316553 15.6350113,22.8095238 15.1142857,22.8095238 L14.6952381,22.8095238 L14.6952381,22.8095238 Z" id="形状" fill="#2EAD31"></path>
                    </g>
                </g>
            </g>
        </g>
    </g>
</svg>