<?xml version="1.0" encoding="UTF-8"?>
<svg width="58px" height="58px" viewBox="0 0 58 58" version="1.1" xmlns="http://www.w3.org/2000/svg" xmlns:xlink="http://www.w3.org/1999/xlink">
    <title>编组 10</title>
    <g id="页面-1" stroke="none" stroke-width="0" fill="none" fill-rule="evenodd">
        <g id="首页" transform="translate(-68.000000, -113.000000)" fill="#F7A34B">
            <g id="Group-16" transform="translate(24.000000, 88.000000)">
                <g id="编组-10" transform="translate(44.000000, 25.000000)">
                    <circle id="椭圆形" fill-opacity="0.1" cx="29" cy="29" r="29"></circle>
                    <g id="托盘_pallet" transform="translate(13.000000, 14.000000)" fill-rule="nonzero">
                        <path d="M13.8617959,2.46991411 L13.8617959,5.1146894 L14.210304,4.7572764 L14.2629242,4.69656071 C14.5685265,4.41686378 15.0485852,4.45167411 15.3104722,4.7572764 L16.2446842,5.80482437 L16.7595532,5.34176607 C17.0036303,5.1146894 17.3699483,5.07987907 17.6407402,5.23733509 L18.1386089,5.55184234 L18.1386089,2.46991411 L13.8617959,2.46991411 L13.8617959,2.46991411 Z M27.0241471,0 C27.7053771,0 28.2639614,0.566679737 28.2639614,1.24790974 L28.2639614,19.7087165 L30.7771861,19.7087165 C31.4414157,19.7087165 32,20.2673008 32,20.9485308 L32,27.8094033 C32,28.4906333 31.4414157,29.0403127 30.7771861,29.0403127 L27.1026728,29.0403127 C26.4303477,29.0403127 25.8717634,28.4906333 25.8717634,27.8094033 L25.8717634,26.482968 L20.3203258,26.482968 L20.3203258,27.8094033 C20.3203258,28.4906333 19.7528366,29.0403127 19.0805115,29.0403127 L12.9186789,29.0403127 C12.2374489,29.0403127 11.6966746,28.4906333 11.6966746,27.8094033 L11.6966746,26.482968 L6.12742705,26.482968 L6.12742705,27.8094033 C6.12742705,28.4906333 5.56884273,29.0403127 4.8965177,29.0403127 L1.22200438,29.0403127 C0.558989084,29.0403127 1.15042906e-15,28.4906333 1.15042906e-15,27.8094033 L1.15042906e-15,20.9485308 C1.15042906e-15,20.2673008 0.558584313,19.7087165 1.22200438,19.7087165 L3.73644333,19.7087165 L3.73644333,1.24790974 C3.73644333,0.566679737 4.2772177,0 4.97544809,0 L27.0241471,0 Z M22.6246885,9.37490671 C22.3628015,9.37490671 22.1357249,9.51414802 21.9964835,9.72422429 L21.9964835,9.72422429 L20.8355996,11.3125466 C20.6004275,11.6529593 20.6874534,12.115208 21.0108656,12.3511896 C21.2727526,12.543456 21.6301656,12.5256461 21.8742426,12.3422847 L21.8742426,12.3422847 L21.8742426,16.7765536 C21.8742426,16.864389 21.8920526,16.9161997 21.9098625,16.96882 L21.9098625,16.96882 L19.2727779,16.96882 C19.2905878,16.9157949 19.3075882,16.8639842 19.3075882,16.7765536 L19.3075882,16.7765536 L19.3075882,12.3422847 C19.5630418,12.5329293 19.9124469,12.5365298 20.1717748,12.3511896 C20.5125922,12.115208 20.5733079,11.6529593 20.3381358,11.3125466 L20.3381358,11.3125466 L19.2031572,9.74122469 C19.0809163,9.53236273 18.8368392,9.37490671 18.5579519,9.37490671 C18.2960649,9.37490671 18.0600832,9.51414802 17.9285326,9.72422429 L17.9285326,9.72422429 L16.7765536,11.3125466 C16.549477,11.6529593 16.6203119,12.115208 16.9518196,12.3511896 C17.2137066,12.543456 17.5800245,12.5256461 17.8241016,12.3422847 L17.8241016,12.3422847 L17.8241016,16.7761489 C17.8241016,16.8639842 17.8419115,16.9157949 17.8508165,16.9684152 L17.8508165,16.9684152 L17.3351379,16.9684152 C16.9336049,16.9684152 16.5931923,17.3088278 16.5931923,17.7103609 C16.5931923,18.1297039 16.9340096,18.4523066 17.3351379,18.4523066 L17.3351379,18.4527113 L23.8470977,18.4527113 C24.2656311,18.4527113 24.5890433,18.1301087 24.5890433,17.7107657 C24.5890433,17.3092326 24.2652264,16.96882 23.8470977,16.96882 L23.8470977,16.96882 L23.3314191,16.96882 C23.349229,16.9157949 23.358134,16.8639842 23.358134,16.7765536 L23.358134,16.7765536 L23.358134,12.3422847 C23.620021,12.5256461 23.968529,12.543456 24.230416,12.3511896 C24.5619237,12.115208 24.6319491,11.6529593 24.405682,11.3125466 L24.405682,11.3125466 L23.2707034,9.74122469 C23.1314621,9.53236273 22.8954805,9.37490671 22.6246885,9.37490671 Z M29.5385861,22.1794402 L2.46222346,22.1794402 L2.46222346,26.5788988 L3.65832248,26.5788988 L3.65832248,25.2524634 C3.65832248,24.5801384 4.22500221,24.0126491 4.89692247,24.0126491 L12.9190837,24.0126491 C13.6003137,24.0126491 14.149993,24.5801384 14.149993,25.2524634 L14.149993,26.5788988 L17.8512213,26.5788988 L17.8512213,25.2524634 C17.8512213,24.5801384 18.4009006,24.0126491 19.0813211,24.0126491 L27.1034823,24.0126491 C27.7754026,24.0126491 28.3254867,24.5801384 28.3254867,25.2524634 L28.3254867,26.5788988 L29.5393956,26.5788988 L29.5393956,22.1794402 L29.5385861,22.1794402 L29.5385861,22.1794402 Z M19.2031572,9.74122469 C19.4164905,9.84565567 19.5231572,9.97720632 19.5231572,10.1075427 L19.2031572,9.74122469 Z M23.2711082,9.74122469 C23.4637008,9.84565567 23.5911082,9.97720632 23.5911082,10.1075427 L23.2711082,9.74122469 Z" id="形状"></path>
                    </g>
                </g>
            </g>
        </g>
    </g>
</svg>