<?xml version="1.0" encoding="UTF-8"?>
<svg width="58px" height="58px" viewBox="0 0 58 58" version="1.1"
    xmlns="http://www.w3.org/2000/svg"
    xmlns:xlink="http://www.w3.org/1999/xlink">
    <title>编组 13</title>
    <g id="页面-1" stroke="none" stroke-width="0" fill="none" fill-rule="evenodd">
        <g id="首页" transform="translate(-1332.000000, -113.000000)">
            <g id="Group-16" transform="translate(1288.000000, 87.999904)">
                <g id="编组-13" transform="translate(44.000000, 25.000000)">
                    <circle id="椭圆形" fill-opacity="0.1" fill="#F4DA05" cx="29" cy="29" r="29"></circle>
                    <g id="告警" transform="translate(12.000000, 12.000000)" fill-rule="nonzero">
                        <rect id="矩形" fill="#000000" opacity="0" x="0" y="0" width="34" height="34"></rect>
                        <path d="M13.5383267,7.57055688 C15.4234009,4.14316431 18.4796822,4.1431311 20.3647564,7.57055688 L29.1216822,23.492219 C31.0067232,26.9196116 29.364065,29.6980491 25.4529361,29.6980491 L8.45014703,29.6980491 C4.53888531,29.6980491 2.89635992,26.9196116 4.78140093,23.492219 L13.5383267,7.57055688 Z M18.3682193,12.6975842 C18.3682193,11.9154514 17.734106,11.2813713 16.9515416,11.2813713 C16.1691431,11.2813713 15.5348638,11.9158831 15.5348638,12.6975842 L15.5348638,19.7818362 C15.5348638,20.5640022 16.1689771,21.1980491 16.9515416,21.1980491 C17.73394,21.1980491 18.3682193,20.5635706 18.3682193,19.7818362 L18.3682193,12.6976174 L18.3682193,12.6975842 Z M18.3682193,24.0313713 L15.5348638,24.0313713 L15.5348638,26.8647268 L18.3682193,26.8647268 L18.3682193,24.0313713 L18.3682193,24.0313713 Z" id="形状" fill="#F4DA05"></path>
                    </g>
                </g>
            </g>
        </g>
    </g>
</svg>