<?xml version="1.0" encoding="UTF-8"?>
<svg width="58px" height="58px" viewBox="0 0 58 58" version="1.1" xmlns="http://www.w3.org/2000/svg" xmlns:xlink="http://www.w3.org/1999/xlink">
    <title>编组 13</title>
    <g id="页面-1" stroke="none" stroke-width="0" fill="none" fill-rule="evenodd">
        <g id="首页" transform="translate(-1332.000000, -113.000000)" fill="#F4DA05">
            <g id="Group-16" transform="translate(1288.000000, 87.999904)">
                <g id="编组-13" transform="translate(44.000000, 25.000000)">
                    <circle id="椭圆形" fill-opacity="0.1" cx="29" cy="29" r="29"></circle>
                    <g id="Input" transform="translate(13.000000, 13.000000)" fill-rule="nonzero">
                        <path d="M31.974526,11.4674323 C31.8994209,11.041849 31.6587506,10.6633613 31.3052047,10.414831 L16.9665107,0.29634338 C16.3884343,-0.0987811267 15.6271557,-0.0987811267 15.0490792,0.29634338 L0.714254139,10.414831 C0.229747552,10.7423503 -0.041149462,11.3051559 0.00509910578,11.8881452 C0.0513476736,12.4711345 0.407592702,12.9841889 0.937678431,13.2312205 C1.46776416,13.4782521 2.08974973,13.4210747 2.56591417,13.0815413 L3.37967476,12.5071372 L3.37967476,23.6820951 L9.39118616,23.6820951 L9.39118616,21.8005155 C9.39067466,21.7338614 9.42724126,21.6724438 9.48608238,21.6411269 C9.54492351,21.60981 9.61629203,21.6137815 9.67129521,21.6514335 L15.7220115,25.8172172 C15.7865907,25.8619248 15.825126,25.9354712 15.825126,26.0140157 C15.825126,26.0925602 15.7865907,26.1661066 15.7220115,26.2108142 L9.67155312,30.3531266 C9.6163123,30.3895086 9.54559901,30.392771 9.48724297,30.3616298 C9.42888693,30.3304887 9.39223124,30.2699298 9.39170203,30.2037867 L9.39170203,28.1292774 L3.37967476,28.1292774 L3.37967476,30.5313543 C3.37898253,30.9844439 3.55756713,31.4194077 3.87644275,31.7412912 C4.1939712,32.0614759 4.62641751,32.2412903 5.0773522,32.2406402 L26.9403011,32.2406402 C27.3910681,32.2406402 27.8231922,32.0607467 28.1404368,31.7405175 C28.4593593,31.4189184 28.6382045,30.9842753 28.6379786,30.5313543 L28.6379786,12.5071372 L29.4496758,13.0815413 C29.8011927,13.3297384 30.2370549,13.4277876 30.6609962,13.3540334 C31.0849375,13.2802793 31.4620772,13.04079 31.7091189,12.6884601 C31.9550765,12.3323461 32.0504626,11.8935145 31.974526,11.4674323 L31.974526,11.4674323 Z M15.1813959,18.1407851 C15.1813959,18.283618 15.1246558,18.4206009 15.0236577,18.521599 C14.9226595,18.6225972 14.7856767,18.6793374 14.6428438,18.6793374 L10.7571691,18.6793374 C10.6142915,18.6794058 10.4772424,18.6226958 10.3761884,18.5216903 C10.2751345,18.4206847 10.218359,18.2836627 10.218359,18.1407851 L10.218359,16.438465 C10.218359,16.2955874 10.2751345,16.1585654 10.3761885,16.0575599 C10.4772424,15.9565543 10.6142915,15.8998444 10.7571691,15.8999128 L14.6438755,15.8999128 C14.9413096,15.8999128 15.1824276,16.1410308 15.1824276,16.438465 L15.1813959,18.1407851 Z M15.1813959,13.6936028 C15.1813959,13.9910369 14.9402779,14.232155 14.6428438,14.232155 L10.7571691,14.232155 C10.6142915,14.2322234 10.4772424,14.1755134 10.3761885,14.0745079 C10.2751345,13.9735024 10.218359,13.8364804 10.218359,13.6936028 L10.218359,11.9912827 C10.218359,11.848405 10.2751345,11.7113831 10.3761885,11.6103775 C10.4772424,11.509372 10.6142915,11.4526621 10.7571691,11.4527304 L14.6438755,11.4527304 C14.9413096,11.4527304 15.1824276,11.6938485 15.1824276,11.9912827 L15.1813959,13.6936028 Z M21.7985206,18.1407851 C21.7985206,18.283618 21.7417805,18.4206009 21.6407823,18.521599 C21.5397842,18.6225972 21.4028013,18.6793374 21.2599684,18.6793374 L17.3742938,18.6793374 C17.2314162,18.6794058 17.094367,18.6226958 16.9933131,18.5216903 C16.8922592,18.4206847 16.8354837,18.2836627 16.8354837,18.1407851 L16.8354837,16.438465 C16.8354837,16.2955874 16.8922592,16.1585654 16.9933131,16.0575599 C17.094367,15.9565543 17.2314162,15.8998444 17.3742938,15.8999128 L21.2599684,15.8999128 C21.5574026,15.8999128 21.7985206,16.1410308 21.7985206,16.438465 L21.7985206,18.1407851 Z M21.7985206,13.6936028 C21.7985206,13.9910369 21.5574026,14.232155 21.2599684,14.232155 L17.3742938,14.232155 C17.2314162,14.2322234 17.094367,14.1755134 16.9933131,14.0745079 C16.8922592,13.9735024 16.8354837,13.8364804 16.8354837,13.6936028 L16.8354837,11.9912827 C16.8354837,11.848405 16.8922592,11.7113831 16.9933131,11.6103775 C17.094367,11.509372 17.2314162,11.4526621 17.3742938,11.4527304 L21.2599684,11.4527304 C21.5574026,11.4527304 21.7985206,11.6938485 21.7985206,11.9912827 L21.7985206,13.6936028 Z" id="形状"></path>
                    </g>
                </g>
            </g>
        </g>
    </g>
</svg>