<?xml version="1.0" encoding="UTF-8"?>
<svg width="58px" height="58px" viewBox="0 0 58 58" version="1.1"
    xmlns="http://www.w3.org/2000/svg"
    xmlns:xlink="http://www.w3.org/1999/xlink">
    <title>编组 12</title>
    <g id="页面-1" stroke="none" stroke-width="0" fill="none" fill-rule="evenodd">
        <g id="首页" transform="translate(-1016.000000, -113.000000)">
            <g id="Group-16" transform="translate(972.000000, 87.999904)">
                <g id="编组-12" transform="translate(44.000000, 25.000000)">
                    <circle id="椭圆形" fill-opacity="0.1" fill="#30CB40" cx="29" cy="29" r="29"></circle>
                    <g id="1-6设备" transform="translate(12.000000, 12.000000)" fill-rule="nonzero">
                        <rect id="矩形" fill="#000000" opacity="0" x="0" y="0" width="34" height="34"></rect>
                        <path d="M21.013574,15.1265624 C20.3508736,15.1265624 19.8139151,14.5896038 19.8139151,13.9269035 C19.8139151,12.353415 18.5360935,11.0755786 16.9625902,11.0755786 C15.3891017,11.0755786 14.1112654,12.3534002 14.1112654,13.9269035 C14.1112654,14.3551111 13.883568,14.7527303 13.5097368,14.9668341 C13.1393054,15.1809376 12.6805094,15.1809376 12.3100779,14.9668341 C11.9396465,14.7527305 11.7085494,14.3551111 11.7085494,13.9269035 C11.7085494,11.0280192 14.060288,8.67626576 16.9591871,8.67626576 C19.8580862,8.67626576 22.2098932,11.027997 22.2098932,13.9268813 C22.2166267,14.5895817 21.6762694,15.1265402 21.013569,15.1265402 L21.013574,15.1265624 Z M24.6907084,15.1265624 C24.028008,15.1265624 23.4910495,14.5896038 23.4910495,13.9269035 C23.4910495,10.3211329 20.5683608,7.40186951 16.9660155,7.40186951 C13.3602449,7.40186951 10.4409815,10.3245582 10.4409815,13.9269035 C10.4409815,14.5896038 9.90402294,15.1265624 9.2413226,15.1265624 C8.57862226,15.1265624 8.0416637,14.5896038 8.0416637,13.9269035 C8.0416637,10.7391386 9.7442971,7.79267024 12.5038494,6.19541182 C15.2668073,4.60152939 18.6686637,4.60152939 21.4316462,6.19541182 C24.1946041,7.78929425 25.893832,10.7357626 25.893832,13.9269035 C25.8904335,14.5896038 25.3534752,15.1265624 24.6907749,15.1265624 L24.6907084,15.1265624 Z M27.504651,19.2522835 L18.203032,19.2522835 L18.203032,15.1265624 C18.203032,14.4638621 17.6660734,13.9269035 17.0033731,13.9269035 C16.3406727,13.9269035 15.8037142,14.4638621 15.8037142,15.1265624 L15.8037142,19.2522835 L6.49872409,19.2522835 C5.66949666,19.2522835 5,19.9251808 5,20.7510076 L5,27.463002 C5,28.2922294 5.67289729,28.9617261 6.49872409,28.9617261 L27.5012504,28.9617261 C28.3304778,28.9617261 28.9999873,28.2888288 28.9999873,27.463002 L28.9999873,20.754423 C29.0033729,19.9251956 28.3304778,19.2523007 27.5046485,19.2523007 L27.504651,19.2522835 Z M8.70092399,25.3083517 C8.03822364,25.3083517 7.50126508,24.7713931 7.50126508,24.1086928 C7.50126508,23.4459924 8.03822364,22.9090339 8.70092399,22.9090339 C9.36362433,22.9090339 9.90058289,23.4459924 9.90058289,24.1086928 C9.90058289,24.4281469 9.77483964,24.7340109 9.55054038,24.9583092 C9.32284296,25.1826079 9.01697997,25.3083517 8.70092399,25.3083517 L8.70092399,25.3083517 Z M12.3372755,25.3083517 C11.6745752,25.3083517 11.1376166,24.7713931 11.1376166,24.1086928 C11.1376166,23.4459924 11.6745752,22.9090339 12.3372755,22.9090339 C12.9999759,22.9090339 13.5369344,23.4459924 13.5369344,24.1086928 C13.5369344,24.4281469 13.4111912,24.7340109 13.1868919,24.9583092 C12.9625932,25.1826079 12.6567321,25.3083517 12.3372755,25.3083517 L12.3372755,25.3083517 Z" id="形状" fill="#30CA41"></path>
                    </g>
                </g>
            </g>
        </g>
    </g>
</svg>