<?xml version="1.0" encoding="UTF-8"?>
<svg width="58px" height="58px" viewBox="0 0 58 58" version="1.1"
    xmlns="http://www.w3.org/2000/svg"
    xmlns:xlink="http://www.w3.org/1999/xlink">
    <title>编组 14</title>
    <g id="页面-1" stroke="none" stroke-width="0" fill="none" fill-rule="evenodd">
        <g id="首页" transform="translate(-1648.000000, -113.000000)">
            <g id="Group-16" transform="translate(1604.000000, 87.999904)">
                <g id="编组-14" transform="translate(44.000000, 25.000000)">
                    <circle id="椭圆形" fill-opacity="0.1" fill="#F65854" cx="29" cy="29" r="29"></circle>
                    <g id="紧急告警" transform="translate(12.000000, 12.000096)" fill-rule="nonzero">
                        <rect id="矩形" fill="#000000" opacity="0" x="0" y="0" width="34" height="34"></rect>
                        <g id="编组-6" transform="translate(3.000000, 3.000000)">
                            <path d="M26.9371059,25.8740193 L23.5830664,25.8740193 L23.5830664,15.3327522 C23.5830664,10.0402239 19.2926245,5.74978207 14.0000963,5.74978207 C8.70756804,5.74978207 4.41712618,10.0402239 4.41712618,15.3327522 L4.41712618,25.8740193 L1.06308664,25.8740193 C0.798460227,25.8740193 0.583938134,26.0885414 0.583938134,26.3531678 L0.583938134,28.2697618 C0.583938134,28.5343882 0.798460227,28.7489103 1.06308664,28.7489103 L26.9371059,28.7489103 C27.2017324,28.7489103 27.4162545,28.5343882 27.4162545,28.2697618 L27.4162545,26.3531678 C27.4162545,26.0885414 27.2017324,25.8740193 26.9371059,25.8740193 Z" id="路径" fill="#F65854"></path>
                            <polygon id="路径" fill="#F65854" points="12.5626508 0 15.4375418 0 15.4375418 3.83318805 12.5626508 3.83318805"></polygon>
                            <polygon id="路径" fill="#F65854" points="5.09063148 2.77413976 7.58036016 1.33669424 9.49695418 4.65633248 7.00722551 6.09377799"></polygon>
                            <polygon id="路径" fill="#F65854" points="0 8.91029934 1.43744552 6.42057066 4.75708375 8.33716468 3.31963823 10.8268934"></polygon>
                            <polygon id="路径" fill="#F65854" points="23.2429163 8.33602641 26.5625545 6.41943238 28 8.90916103 24.6803618 10.8257551"></polygon>
                            <polygon id="路径" fill="#F65854" points="18.5021563 4.6533808 20.4187504 1.33374257 22.908479 2.77118808 20.991885 6.09082632 18.5021563 4.6533808"></polygon>
                            <path d="M17.7949525,14.8536037 L14.7523594,14.8536037 L15.3225462,10.8718796 C15.3345323,10.7680972 15.277885,10.6685143 15.1825532,10.6257794 C15.0872213,10.5830444 14.9751891,10.6070124 14.905687,10.6850117 L10.0231637,16.3772959 C9.96390335,16.4484365 9.95094116,16.5473562 9.98987133,16.6313634 C10.0288015,16.7153706 10.1126541,16.769425 10.2052401,16.7701977 L13.2478331,16.7701977 L12.6776464,20.7519218 C12.6656603,20.8557041 12.7223075,20.955287 12.8176394,20.998022 C12.9129713,21.040757 13.0250034,21.016789 13.0945056,20.9387897 L17.9770289,15.2465055 C18.0362892,15.1753649 18.0492514,15.0764452 18.0103213,14.992438 C17.9713911,14.9084307 17.8875385,14.8543764 17.7949525,14.8536037 L17.7949525,14.8536037 Z" id="路径" fill="#FFFFFF"></path>
                        </g>
                    </g>
                </g>
            </g>
        </g>
    </g>
</svg>