<?xml version="1.0" encoding="UTF-8"?>
<svg width="58px" height="58px" viewBox="0 0 58 58" version="1.1" xmlns="http://www.w3.org/2000/svg" xmlns:xlink="http://www.w3.org/1999/xlink">
    <title>编组 14</title>
    <g id="页面-1" stroke="none" stroke-width="0" fill="none" fill-rule="evenodd">
        <g id="首页" transform="translate(-1648.000000, -113.000000)" fill="#FCA61D">
            <g id="Group-16" transform="translate(1604.000000, 87.999904)">
                <g id="编组-14" transform="translate(44.000000, 25.000000)">
                    <circle id="椭圆形" fill-opacity="0.1" cx="29" cy="29" r="29"></circle>
                    <g id="Out-of-stock" transform="translate(12.804626, 12.747319)" fill-rule="nonzero">
                        <path d="M31.9744331,11.4732955 C31.8992913,11.0475042 31.6585034,10.6688315 31.3047847,10.4201798 L16.9580498,0.296488222 C16.3796908,-0.0988294074 15.6180401,-0.0988294074 15.0396811,0.296488222 L0.697849282,10.4201798 C0.221254508,10.7510625 -0.0426133603,11.3110711 0.00564215341,11.8892557 C0.0538976671,12.4674402 0.406945402,12.9759608 0.931795688,13.2232626 C1.45664597,13.4705644 2.07356157,13.4190763 2.55015632,13.0881935 L3.36457273,12.5135087 L3.36457273,25.2303785 L8.54705847,21.6622746 C8.60208852,21.6246042 8.67349192,21.6206307 8.73236179,21.651963 C8.79123167,21.6832952 8.82781614,21.7447428 8.8273044,21.8114294 L8.8273044,23.6939287 L15.4476635,23.6939287 L15.4476635,28.1432848 L8.82936885,28.1432848 L8.82936885,30.2190661 C8.82984454,30.2856237 8.79336918,30.3469547 8.7346599,30.3783133 C8.67595062,30.4096718 8.60469333,30.4058843 8.549639,30.368479 L3.36663718,26.8202452 L3.36663718,30.5467939 C3.36588834,31.000116 3.54456869,31.435313 3.86364793,31.7573222 C4.18126604,32.0777609 4.61396638,32.257681 5.06514441,32.256916 L26.9385217,32.256916 C27.3895813,32.256916 27.8219904,32.0769244 28.1395021,31.756548 C28.4584144,31.4347024 28.6372395,30.9998828 28.637029,30.5467939 L28.637029,12.5135087 L29.449381,13.0881935 C29.8010921,13.3364435 30.2371473,13.4344995 30.661275,13.3607129 C31.0854027,13.2869263 31.4627219,13.0473655 31.7099285,12.6949202 C31.9554112,12.3383816 32.0504493,11.8994447 31.9744331,11.4732955 Z M15.1728366,17.7790875 C15.1728366,18.0766671 14.9316008,18.317903 14.6340212,18.317903 L10.7464473,18.317903 C10.4488677,18.317903 10.2076318,18.0766671 10.2076318,17.7790875 L10.2076318,16.0759354 C10.2076318,15.7783558 10.4488677,15.5371199 10.7464473,15.5371199 L14.6340212,15.5371199 C14.9316008,15.5371199 15.1728366,15.7783558 15.1728366,16.0759354 L15.1728366,17.7790875 Z M15.1728367,13.3297315 C15.1729051,13.4726789 15.1161674,13.609795 15.0151125,13.7108983 C14.9140576,13.8120016 14.7769687,13.8688049 14.6340212,13.8688049 L10.7464473,13.8688049 C10.6034998,13.8688049 10.4664109,13.8120016 10.365356,13.7108983 C10.2643011,13.609795 10.2075634,13.4726789 10.2076318,13.3297315 L10.2076318,11.6265792 C10.2076318,11.3289997 10.4488677,11.0877638 10.7464473,11.0877638 L14.6340212,11.0877638 C14.9316008,11.0877638 15.1728367,11.3289997 15.1728367,11.6265792 L15.1728367,13.3297315 Z M21.7931957,17.7790875 C21.7931957,18.0766671 21.5519598,18.317903 21.2543803,18.317903 L17.3668063,18.317903 C17.0692268,18.317903 16.8279909,18.0766671 16.8279909,17.7790875 L16.8279909,16.0759354 C16.8279909,15.7783558 17.0692268,15.5371199 17.3668063,15.5371199 L21.2543803,15.5371199 C21.5519598,15.5371199 21.7931957,15.7783558 21.7931957,16.0759354 L21.7931957,17.7790875 Z M21.7931958,13.3297315 C21.7932642,13.4726789 21.7365265,13.609795 21.6354716,13.7108983 C21.5344167,13.8120016 21.3973277,13.8688049 21.2543803,13.8688049 L17.3668063,13.8688049 C17.2238589,13.8688049 17.0867699,13.8120016 16.985715,13.7108983 C16.8846601,13.609795 16.8279224,13.4726789 16.8279908,13.3297315 L16.8279908,11.6265792 C16.8279908,11.3289997 17.0692268,11.0877638 17.3668063,11.0877638 L21.2543803,11.0877638 C21.5519598,11.0877638 21.7931958,11.3289997 21.7931958,11.6265792 L21.7931958,13.3297315 Z" id="形状"></path>
                    </g>
                </g>
            </g>
        </g>
    </g>
</svg>