<?xml version="1.0" encoding="UTF-8"?>
<svg width="18px" height="18px" viewBox="0 0 18 18" version="1.1"
    xmlns="http://www.w3.org/2000/svg"
    xmlns:xlink="http://www.w3.org/1999/xlink">
    <title>dingduiqi</title>
    <g id="页面-1" stroke="none" stroke-width="0" fill="none" fill-rule="evenodd">
        <g id="添加盒码" transform="translate(-48.000000, -465.000000)">
            <g id="编组-3" transform="translate(48.000000, 464.000000)">
                <g id="dingduiqi" transform="translate(0.000000, 1.000000)">
                    <circle id="椭圆形" fill="#85BBFF" cx="9" cy="9" r="9"></circle>
                    <g id="-其他服务业-" transform="translate(3.000000, 3.000000)" fill-rule="nonzero">
                        <rect id="矩形" fill="#000000" opacity="0" x="0" y="0" width="12" height="12"></rect>
                        <path d="M3.38342316,1 C2.04642989,1 1,2.04676463 1,3.38375791 C1,4.72108594 2.04609514,5.76751581 3.38342316,5.76751581 L5.76718106,5.76751581 L5.76718106,3.38409266 C5.76718106,2.04642989 4.72075118,1 3.38375791,1 L3.38342316,1 Z M1.75553176,3.38375791 C1.75553176,2.51173301 2.51139826,1.7558665 3.38342316,1.7558665 C4.25544807,1.7558665 5.01131457,2.51173301 5.01131457,3.38375791 L5.01131457,5.01164932 L3.38342316,5.01164932 C2.51139826,5.01164932 1.75553176,4.25578281 1.75553176,3.38375791 Z M8.61624209,1.00033475 C7.27891406,1.00033475 6.23248419,2.04642989 6.23248419,3.38375791 L6.23248419,5.76751581 L8.61590734,5.76751581 C9.95357011,5.76751581 11,4.72108593 11,3.38409266 C11,2.04642989 9.95357011,1 8.61624209,1 L8.61624209,1.00033475 Z M8.61624209,5.01164932 L6.98835068,5.01164932 L6.98835068,3.38375791 C6.98835068,2.51173301 7.74421719,1.7558665 8.61624209,1.7558665 C9.48826699,1.7558665 10.2441335,2.51173301 10.2441335,3.38375791 C10.2441335,4.25578281 9.48826699,5.01164932 8.61624209,5.01164932 L8.61624209,5.01164932 Z M3.38342316,6.23281894 C2.04609514,6.23281894 1,7.27924882 1,8.61624209 C1,9.95390486 2.04609514,11.0003347 3.38342316,11.0003347 C4.72075119,11.0003347 5.76718106,9.95390486 5.76718106,8.61657684 L5.76718106,6.23281894 L3.38375791,6.23281894 L3.38342316,6.23281894 Z M3.38342316,10.2444682 C2.51139826,10.2444682 1.75553176,9.48860174 1.75553176,8.61657684 C1.75553176,7.74455193 2.51139826,6.98868543 3.38342316,6.98868543 L5.01131457,6.98868543 L5.01131457,8.61657684 C5.01131457,9.48860174 4.25544807,10.2444682 3.38342316,10.2444682 Z M8.61624209,6.23281894 L6.23248419,6.23281894 L6.23248419,8.61624209 C6.23248419,9.95390486 7.27891407,11.0003347 8.61590734,11.0003347 C9.95357011,11.0003347 11,9.95390486 11,8.61657684 C11,7.27924881 9.95357011,6.23281894 8.61624209,6.23281894 Z M8.61624209,10.2444682 C7.74421719,10.2444682 6.98835068,9.48860174 6.98835068,8.61657684 L6.98835068,6.98868543 L8.61624209,6.98868543 C9.48826699,6.98868543 10.2441335,7.74455193 10.2441335,8.61657684 C10.2441335,9.48860174 9.48826699,10.2444682 8.61624209,10.2444682 Z" id="形状" fill="#FFFFFF"></path>
                    </g>
                </g>
            </g>
        </g>
    </g>
</svg>