<?xml version="1.0" encoding="UTF-8"?>
<svg width="40px" height="40px" viewBox="0 0 40 40" version="1.1" xmlns="http://www.w3.org/2000/svg" xmlns:xlink="http://www.w3.org/1999/xlink">
    <title>托盘_pallet</title>
    <g id="页面-1" stroke="none" stroke-width="0" fill="none" fill-rule="evenodd">
        <g id="托码管理-详情" transform="translate(-48.000000, -168.000000)">
            <g id="托盘_pallet" transform="translate(48.000000, 168.000000)">
                <rect id="矩形" fill="#000000" fill-rule="nonzero" opacity="0" x="8" y="8" width="24" height="24"></rect>
                <circle id="椭圆形" fill="#85BBFF" cx="20" cy="20" r="20"></circle>
                <path d="M18.7617969,13.0224219 L18.7617969,14.5538281 L18.9635938,14.346875 L18.9940625,14.3117187 C19.1710156,14.1497656 19.4489844,14.1699219 19.600625,14.346875 L20.1415625,14.9534375 L20.4396875,14.6853125 C20.5810156,14.5538281 20.793125,14.5336719 20.9499219,14.6248437 L21.2382031,14.8069531 L21.2382031,13.0224219 L18.7617969,13.0224219 L18.7617969,13.0224219 Z M22.0974219,13.0224219 L22.0974219,15.56 C22.0974219,15.7976562 21.9054688,15.9896094 21.6729688,15.9896094 C21.5714844,15.9896094 21.4908594,15.9591406 21.4198438,15.9134375 L20.7832813,15.5241406 L20.399375,15.8780469 C20.2275781,16.0348437 19.9646094,16.0245312 19.8026563,15.8475781 L19.7928125,15.8377344 L19.2570313,15.2410156 L18.6303125,15.8677344 C18.4585156,16.0296875 18.1903906,16.0245312 18.02375,15.8677344 C17.9428906,15.7772656 17.9021094,15.6710937 17.9021094,15.5597656 L17.9021094,13.0224219 L14.3236719,13.0224219 L14.3236719,23.0044531 L25.675625,23.0044531 L25.675625,13.0224219 L22.0974219,13.0224219 Z M12.8989063,23.0044531 L12.8989063,12.3148437 C12.8989063,11.9203906 13.2120313,11.5922656 13.6163281,11.5922656 L26.3832031,11.5922656 C26.7776563,11.5922656 27.1010938,11.9203906 27.1010938,12.3148437 L27.1010938,23.0042187 L28.5563281,23.0042187 C28.9409375,23.0042187 29.264375,23.3276562 29.264375,23.7221094 L29.264375,27.6947656 C29.264375,28.0892187 28.9409375,28.4075 28.5563281,28.4075 L26.4286719,28.4075 C26.039375,28.4075 25.7159375,28.0892187 25.7159375,27.6947656 L25.7159375,26.9267187 L22.5014844,26.9267187 L22.5014844,27.6947656 C22.5014844,28.0892187 22.1728906,28.4075 21.7835938,28.4075 L18.2157031,28.4075 C17.82125,28.4075 17.508125,28.0892187 17.508125,27.6947656 L17.508125,26.9267187 L14.2833594,26.9267187 L14.2833594,27.6947656 C14.2833594,28.0892187 13.9599219,28.4075 13.570625,28.4075 L11.4429688,28.4075 C11.0590625,28.4075 10.7353906,28.0892187 10.7353906,27.6947656 L10.7353906,23.7221094 C10.7353906,23.3276562 11.0588281,23.0042187 11.4429688,23.0042187 L12.8989063,23.0042187 L12.8989063,23.0044531 Z M27.8391406,24.4348437 L12.1610938,24.4348437 L12.1610938,26.9822656 L12.8536719,26.9822656 L12.8536719,26.2142187 C12.8536719,25.8249219 13.1817969,25.4963281 13.5708594,25.4963281 L18.2159375,25.4963281 C18.6103906,25.4963281 18.9286719,25.8249219 18.9286719,26.2142187 L18.9286719,26.9822656 L21.0717969,26.9822656 L21.0717969,26.2142187 C21.0717969,25.8249219 21.3900781,25.4963281 21.7840625,25.4963281 L26.4291406,25.4963281 C26.8182031,25.4963281 27.1367188,25.8249219 27.1367188,26.2142187 L27.1367188,26.9822656 L27.8396094,26.9822656 L27.8396094,24.4348437 L27.8391406,24.4348437 L27.8391406,24.4348437 Z M20.7729688,22.2767187 C20.5407031,22.2767187 20.3433594,22.0899219 20.3433594,21.8471094 C20.3433594,21.6146094 20.5404688,21.4175 20.7729688,21.4175 L21.0715625,21.4175 C21.0664063,21.3870312 21.0560938,21.3570312 21.0560938,21.3061719 L21.0560938,18.7388281 C20.9147656,18.845 20.7026563,18.8553125 20.5510156,18.7439844 C20.3590625,18.6073437 20.3180469,18.3396875 20.4495313,18.1425781 L21.1165625,17.2228906 C21.1927344,17.10125 21.329375,17.020625 21.4810156,17.020625 C21.6425,17.020625 21.7838281,17.1117969 21.8546094,17.2327344 L22.5117969,18.1425781 C22.6479688,18.3396875 22.6128125,18.6073437 22.4154688,18.7439844 C22.2653099,18.851302 22.0629936,18.8492173 21.9150781,18.7388281 L21.9150781,21.3064062 C21.9150781,21.3570312 21.9052344,21.3870312 21.8949219,21.4177344 L23.421875,21.4177344 C23.4115625,21.3872656 23.40125,21.3572656 23.40125,21.3064062 L23.40125,18.7388281 C23.2599219,18.845 23.0529688,18.8553125 22.9013281,18.7439844 C22.7140625,18.6073437 22.6636719,18.3396875 22.7998438,18.1425781 L23.4720313,17.2228906 C23.5526563,17.10125 23.6841406,17.020625 23.8357813,17.020625 C23.9925781,17.020625 24.1292188,17.1117969 24.2098438,17.2327344 L24.8670313,18.1425781 C24.9980469,18.3396875 24.9575,18.6073437 24.7655469,18.7439844 C24.6139063,18.8553125 24.4121094,18.845 24.2604688,18.7388281 L24.2604688,21.3064062 C24.2604688,21.3570312 24.2553125,21.3870312 24.245,21.4177344 L24.5435938,21.4177344 C24.7857031,21.4177344 24.9732031,21.6148437 24.9732031,21.8473437 C24.9732031,22.0901562 24.7859375,22.2769531 24.5435938,22.2769531 L20.7729688,22.2769531 L20.7729688,22.2767187 L20.7729688,22.2767187 Z M21.8546094,17.2327344 C21.9546094,17.2932031 22.0046094,17.369375 22.0046094,17.4448437 L21.8546094,17.2327344 Z M24.2100781,17.2327344 C24.3003559,17.2932031 24.3600781,17.369375 24.3600781,17.4448437 L24.2100781,17.2327344 Z" id="形状" fill="#FFFFFF" fill-rule="nonzero"></path>
            </g>
        </g>
    </g>
</svg>