<?xml version="1.0" encoding="UTF-8"?>
<svg width="176px" height="175px" viewBox="0 0 176 175" version="1.1" xmlns="http://www.w3.org/2000/svg" xmlns:xlink="http://www.w3.org/1999/xlink">
    <title>打印机</title>
    <g id="页面-1" stroke="none" stroke-width="1" fill="none" fill-rule="evenodd">
        <g id="首页" transform="translate(-109.000000, -440.000000)" fill-rule="nonzero">
            <g id="打印机" transform="translate(109.000000, 440.000000)">
                <polygon id="路径" fill-opacity="0.25" fill="#13C2C2" points="41.1445313 101.435547 137.828125 101.435547 137.828125 174.214844 41.1445313 174.214844"></polygon>
                <path d="M145.349609,141.132812 C141.949219,141.130859 139.193359,138.375 139.189453,134.976562 C139.191406,131.574219 141.949219,128.820312 145.349609,128.814453 L159.929688,128.814453 C161.632812,128.8125 163.011719,127.433594 163.015625,125.730469 L163.015625,49.6015625 C163.013672,47.8984375 161.632812,46.5175781 159.929688,46.515625 L15.4023437,46.515625 C13.703125,46.5214844 12.3242187,47.8984375 12.3183594,49.6015625 L12.3183594,125.732422 C12.3203125,127.435547 13.6992187,128.814453 15.4023437,128.816406 L29.9707031,128.816406 C33.3710938,128.822266 36.1269531,131.576172 36.1289062,134.976562 C36.1269531,138.376953 33.3691406,141.132812 29.9707031,141.134766 L15.4023437,141.134766 C6.90820312,141.134766 0,134.224609 0,125.732422 L0,49.6015625 C0,41.1074219 6.90820312,34.1992188 15.4023437,34.1992188 L159.929688,34.1992188 C168.423828,34.1992188 175.332031,41.1074219 175.332031,49.6015625 L175.332031,125.732422 C175.332031,134.224609 168.423828,141.134766 159.929688,141.134766 L145.349609,141.134766 L145.349609,141.132812 Z" id="路径" fill="#0ABDBD"></path>
                <path d="M44.2304688,174.214844 C35.7402344,174.214844 28.8300781,167.306641 28.8300781,158.8125 L28.8300781,101.435547 C28.8320313,98.0371094 31.5878906,95.2832031 34.9882813,95.2792969 C38.3867188,95.28125 41.1425781,98.0371094 41.1445313,101.435547 L41.1445313,158.8125 C41.1484375,160.515625 42.5273438,161.894531 44.2304688,161.898437 L131.308594,161.898437 C133.011719,161.896484 134.390625,160.515625 134.394531,158.8125 L134.394531,101.005859 C134.396484,97.6054688 137.154297,94.8496094 140.554688,94.8476562 C143.955078,94.8496094 146.708984,97.6054688 146.712891,101.005859 L146.712891,158.8125 C146.712891,167.306641 139.804687,174.214844 131.310547,174.214844 L44.2304688,174.214844 Z M34.8847656,46.5136719 C31.4863281,46.5117188 28.7324219,43.7558594 28.7265625,40.3574219 L28.7265625,15.4023438 C28.7265625,6.90820312 35.6347656,0 44.1289063,0 L131.722656,0 C140.216797,0 147.126953,6.90820312 147.126953,15.4023438 L147.126953,40.359375 C147.117188,43.7578125 144.363281,46.5097656 140.962891,46.515625 C137.564453,46.5117188 134.808594,43.7597656 134.804688,40.359375 L134.804688,15.4023438 C134.802734,13.6992188 133.421875,12.3203125 131.71875,12.3164062 L44.1289063,12.3164062 C42.4257812,12.3183594 41.0488281,13.6992188 41.0429688,15.4023438 L41.0429688,40.359375 C41.0390625,43.7558594 38.2851562,46.5117188 34.8847656,46.5136719 Z" id="形状" fill="#0ABDBD"></path>
                <path d="M57.9121094,140.480469 C54.8730469,140.474609 52.4121094,138.011719 52.4082031,134.974609 C52.4101563,131.933594 54.8730469,129.46875 57.9121094,129.464844 L117.419922,129.464844 C120.458984,129.46875 122.923828,131.933594 122.925781,134.974609 C122.923828,138.013672 120.458984,140.476562 117.419922,140.478516 L57.9121094,140.480469 L57.9121094,140.480469 Z M26.8046875,106.878906 C23.4082031,106.878906 20.6464844,104.115234 20.6464844,100.71875 C20.6464844,97.3222656 23.4101562,94.5605469 26.8046875,94.5605469 L148.529297,94.5605469 C150.158203,94.5800781 151.710938,95.25 152.84375,96.4179688 C153.988272,97.5853038 154.617793,99.1622726 154.592571,100.796875 C154.568359,104.140625 151.865234,106.847656 148.519531,106.876953 L26.8046875,106.878906 Z M139.25,77.0605469 C134.878906,77.0546875 131.335938,73.5136719 131.330078,69.140625 C131.330078,64.7734375 134.884766,61.2207031 139.25,61.2207031 C143.617188,61.2207031 147.169922,64.7734375 147.169922,69.140625 C147.167969,73.5117187 143.623047,77.0566406 139.25,77.0605469 Z" id="形状" fill="#13C2C2"></path>
            </g>
        </g>
    </g>
</svg>