<?xml version="1.0" encoding="UTF-8"?>
<svg width="40px" height="40px" viewBox="0 0 40 40" version="1.1" xmlns="http://www.w3.org/2000/svg" xmlns:xlink="http://www.w3.org/1999/xlink">
    <title>编组 12</title>
    <defs>
        <circle id="path-1" cx="16" cy="16" r="16"></circle>
        <filter x="-21.9%" y="-15.6%" width="143.8%" height="143.8%" filterUnits="objectBoundingBox" id="filter-2">
            <feOffset dx="0" dy="2" in="SourceAlpha" result="shadowOffsetOuter1"></feOffset>
            <feGaussianBlur stdDeviation="2" in="shadowOffsetOuter1" result="shadowBlurOuter1"></feGaussianBlur>
            <feColorMatrix values="0 0 0 0 0.0691135632   0 0 0 0 0.434641078   0 0 0 0 0.434641078  0 0 0 0.45473667 0" type="matrix" in="shadowBlurOuter1"></feColorMatrix>
        </filter>
    </defs>
    <g id="优化版" stroke="none" stroke-width="1" fill="none" fill-rule="evenodd">
        <g id="在训情况" transform="translate(-97.000000, -972.000000)">
            <g id="编组-12" transform="translate(101.000000, 974.000000)">
                <g id="椭圆形">
                    <use fill="black" fill-opacity="1" filter="url(#filter-2)" xlink:href="#path-1"></use>
                    <use fill="#2DC2C2" fill-rule="evenodd" xlink:href="#path-1"></use>
                </g>
                <g id="搜索" transform="translate(8.000000, 8.000000)" fill-rule="nonzero">
                    <rect id="矩形" fill="#000000" opacity="0" x="0" y="0" width="16" height="16"></rect>
                    <path d="M14.8323203,14.0246502 L12.3960449,11.5933283 L12.3949893,11.5923285 C12.8124617,11.0990887 13.1528451,10.5457204 13.4046099,9.95096749 C13.7414006,9.15629288 13.9121755,8.31246333 13.9121755,7.44292251 C13.9121755,6.57336384 13.7414006,5.72955214 13.4046099,4.93487754 C13.079413,4.16759258 12.613982,3.47861986 12.0212526,2.88709998 C11.4285053,2.29558011 10.7381238,1.83108105 9.96926997,1.5065477 C9.17297046,1.17042643 8.32741549,1 7.45609668,1 C6.58475997,1 5.73922289,1.17042643 4.94292338,1.5065477 C4.17406951,1.83108105 3.48368801,2.29556226 2.89095863,2.88709998 C2.29821136,3.47861986 1.8327804,4.16761043 1.50758346,4.93487754 C1.17077491,5.72955214 1,6.5733817 1,7.44292251 C1,8.31246333 1.17077491,9.15629288 1.50758346,9.95096749 C1.8327804,10.7182703 2.29821136,11.407243 2.89095863,11.9987629 C3.48368801,12.5902828 4.1740874,13.0547818 4.94292338,13.3792973 C5.73922289,13.7154007 6.58477786,13.8858272 7.45609668,13.8858272 C8.32741549,13.8858272 9.17297046,13.7154007 9.96926997,13.3792973 C10.5557552,13.1317549 11.0963844,12.8025257 11.5830347,12.3978411 C11.5841619,12.3989838 11.5852175,12.4001979 11.5863625,12.4013228 L14.0226379,14.8326446 C14.1344602,14.9442387 14.2809562,15 14.4274881,15 C14.5739841,15 14.7205518,14.944203 14.8323203,14.8326625 C15.0558932,14.6095458 15.0558932,14.2477668 14.8323203,14.0246502 Z M7.5,13 C6.03089546,13 4.64972723,12.42789 3.61090943,11.3890906 C2.57209163,10.3502728 2,8.96910454 2,7.5 C2,6.03089546 2.57209163,4.64972723 3.61090943,3.61090943 C4.64970885,2.57209163 6.03087707,2 7.5,2 C8.96912293,2 10.3502728,2.57209163 11.3890906,3.61090943 C12.42789,4.64970885 13,6.03087707 13,7.5 C13,8.96912293 12.42789,10.3502728 11.3890906,11.3890906 C10.3502728,12.42789 8.96910454,13 7.5,13 Z" id="形状" fill="#FFFFFF"></path>
                </g>
            </g>
        </g>
    </g>
</svg>