<?xml version="1.0" encoding="UTF-8"?>
<svg width="18px" height="18px" viewBox="0 0 18 18" version="1.1"
    xmlns="http://www.w3.org/2000/svg"
    xmlns:xlink="http://www.w3.org/1999/xlink">
    <title>编组 9</title>
    <g id="页面-1" stroke="none" stroke-width="0" fill="none" fill-rule="evenodd">
        <g id="添加盒码" transform="translate(-48.000000, -285.000000)">
            <g id="编组-3" transform="translate(48.000000, 284.000000)">
                <g id="编组-9" transform="translate(0.000000, 1.000000)">
                    <circle id="椭圆形" fill="#85BBFF" cx="9" cy="9" r="9"></circle>
                    <rect id="矩形" fill="#000000" fill-rule="nonzero" opacity="0" x="2" y="2" width="14" height="14"></rect>
                    <path d="M13.85625,8.7375 L9.2625,4.14375 C9.109375,3.990625 8.86875,3.88125 8.65,3.903125 L4.84375,4.034375 C4.40625,4.05625 4.05625,4.40625 4.034375,4.84375 L3.903125,8.65 C3.903125,8.86875 3.990625,9.109375 4.14375,9.2625 L8.7375,13.85625 C8.890625,14.009375 9.109375,14.096875 9.328125,14.096875 C9.546875,14.096875 9.74375,14.009375 9.91875,13.85625 L13.85625,9.91875 C14.184375,9.590625 14.184375,9.065625 13.85625,8.7375 Z M7.25,7.25 C6.94375,7.55625 6.4625,7.55625 6.15625,7.25 C5.85,6.94375 5.85,6.4625 6.15625,6.15625 C6.4625,5.85 6.94375,5.85 7.25,6.15625 C7.534375,6.4625 7.534375,6.94375 7.25,7.25 Z" id="形状" fill="#FFFFFF" fill-rule="nonzero"></path>
                </g>
            </g>
        </g>
    </g>
</svg>