<?xml version="1.0" encoding="UTF-8"?>
<svg width="307px" height="125px" viewBox="0 0 307 125" version="1.1"
    xmlns="http://www.w3.org/2000/svg"
    xmlns:xlink="http://www.w3.org/1999/xlink">
    <title>折线图</title>
    <defs>
        <linearGradient x1="50%" y1="0%" x2="50%" y2="100%" id="linearGradient-1">
            <stop stop-color="#5887FB" stop-opacity="0.1" offset="0%"></stop>
            <stop stop-color="#5887FB" stop-opacity="0" offset="100%"></stop>
        </linearGradient>
    </defs>
    <g id="页面-1" stroke="none" stroke-width="0" fill="none" fill-rule="evenodd">
        <g id="画板" transform="translate(-33.000000, -388.000000)">
            <g id="折线图" transform="translate(34.000000, 389.802190)">
                <path d="M0,120.983767 C6.54071604,116.899961 13.8039303,115.45241 21.7896428,116.641113 C33.7682116,118.424168 39.5927509,113.01557 45.7176745,113.01557 C51.8425981,113.01557 70.966103,109.059394 78.9847083,102.179778 C84.3304452,97.5933674 98.2488905,96.0992091 120.740044,97.6973031 C125.356245,88.5357361 129.319704,83.9549527 132.630419,83.9549527 C137.596493,83.9549527 168.341805,56.2187118 172.565588,54.4947092 C175.381442,53.3453742 182.487822,52.7707067 193.884725,52.7707067 C196.03667,54.2171219 202.650805,49.1458294 213.727132,37.5568291 C215.491606,34.2722751 220.310936,31.1649246 228.18512,28.2347775 C232.582348,22.4186566 237.505973,19.5105961 242.955992,19.5105961 C248.406012,19.5105961 254.809434,17.3029465 262.166258,12.8876474 C267.15012,11.2412556 272.589653,10.4180598 278.484858,10.4180598 C287.327666,10.4180598 291.010129,0.19781021 305.16014,0.19781021 C305.16014,7.39754624 305.045197,47.6701329 304.815312,121.01557 L0,120.983767 Z" id="路径-2" fill="url(#linearGradient-1)"></path>
                <path d="M0.30428304,120.785957 C0.399086729,122.496436 6.26258413,121.712537 17.8947752,118.434259 C35.3430619,113.516843 39.8970339,112.81776 46.0219575,112.81776 C52.1468811,112.81776 71.270386,108.861584 79.2889914,101.981968 C84.6347283,97.3955572 98.5531735,95.9013989 121.044327,97.4994929 C125.660528,88.3379259 129.623987,83.7571425 132.934703,83.7571425 C137.900776,83.7571425 168.646088,56.0209015 172.869871,54.296899 C175.685725,53.147564 182.792105,52.5728965 194.189008,52.5728965 C196.340953,54.0193117 202.955088,48.9480192 214.031415,37.3590189 C215.795889,34.0744649 220.615219,30.9671143 228.489403,28.0369673 C232.886631,22.2208464 237.810256,19.3127859 243.260276,19.3127859 C248.710295,19.3127859 255.113717,17.1051363 262.470541,12.6898372 C267.454403,11.0434454 272.893936,10.2202496 278.789141,10.2202496 C287.631949,10.2202496 291.314412,0 305.464423,0" id="路径-2" stroke-opacity="0.15" stroke="#8670FD" stroke-width="2"></path>
            </g>
        </g>
    </g>
</svg>