<?xml version="1.0" standalone="no"?><!DOCTYPE svg PUBLIC "-//W3C//DTD SVG 1.1//EN" "http://www.w3.org/Graphics/SVG/1.1/DTD/svg11.dtd"><svg t="1589522763496" class="icon" viewBox="0 0 1024 1024" version="1.1" xmlns="http://www.w3.org/2000/svg" p-id="2137" width="32" height="32" xmlns:xlink="http://www.w3.org/1999/xlink"><defs><style type="text/css"></style></defs><path d="M937.173333 984.32a6.997333 6.997333 0 0 1-4.224-1.365333l-128.853333-94.933334-129.706667 94.762667a7.125333 7.125333 0 0 1-7.381333 0.597333 7.082667 7.082667 0 0 1-3.84-6.314666v-191.488a7.082667 7.082667 0 0 1 9.258667-6.698667l45.824 15.146667c2.986667 0.853333 5.205333 3.584 5.205333 6.826666v71.338667l76.629333-55.978667a7.082667 7.082667 0 0 1 8.362667 0l75.434667 55.637334v-71.04c0-2.986667 1.92-5.674667 4.778666-6.656l46.165334-15.957334a7.04 7.04 0 0 1 9.386666 6.656v192.426667a7.082667 7.082667 0 0 1-7.04 7.04z m-802.432-33.024A109.226667 109.226667 0 0 1 25.6 842.154667V147.968A109.269333 109.269333 0 0 1 134.741333 38.741333h605.568a109.269333 109.269333 0 0 1 109.184 109.141334v216.576a7.082667 7.082667 0 0 1-7.082666 7.082666H797.44a7.082667 7.082667 0 0 1-7.082667-7.082666V147.968c0-27.605333-22.442667-50.048-50.005333-50.048H134.741333c-27.562667 0-50.005333 22.442667-50.005333 50.048v694.186667c0 27.562667 22.442667 50.005333 50.005333 50.005333H605.013333c3.882667 0 7.04 3.157333 7.04 7.082667v44.970666a7.082667 7.082667 0 0 1-7.04 7.082667H134.741333z m668.928-150.613333a203.605333 203.605333 0 0 1-203.392-203.392 203.605333 203.605333 0 0 1 203.392-203.349334 203.605333 203.605333 0 0 1 203.392 203.349334 203.605333 203.605333 0 0 1-203.392 203.392z m0-346.453334A143.232 143.232 0 0 0 660.608 597.333333a143.232 143.232 0 0 0 143.061333 143.061334A143.232 143.232 0 0 0 946.730667 597.333333a143.232 143.232 0 0 0-143.061334-143.018666z m-610.133333 306.645334a7.082667 7.082667 0 0 1-7.082667-7.082667v-49.194667c0-3.925333 3.2-7.082667 7.082667-7.082666h356.096c3.925333 0 7.082667 3.157333 7.082667 7.082666v49.194667a7.082667 7.082667 0 0 1-7.082667 7.082667H193.536z m610.133333-75.648a88.021333 88.021333 0 0 1-87.893333-87.893334c0-48.512 39.424-87.936 87.893333-87.936 48.469333 0 87.893333 39.424 87.893334 87.893334 0 48.469333-39.424 87.893333-87.893334 87.893333z m0-138.581334c-27.904 0-50.645333 22.698667-50.645333 50.645334a50.773333 50.773333 0 0 0 50.688 50.688 50.730667 50.730667 0 0 0 0-101.333334z m-610.133333 57.728a7.082667 7.082667 0 0 1-7.082667-7.082666v-49.237334c0-3.882667 3.2-7.04 7.082667-7.04h356.096c3.925333 0 7.082667 3.157333 7.082667 7.04V597.333333a7.082667 7.082667 0 0 1-7.082667 7.082667H193.536z m0-155.306666a7.082667 7.082667 0 0 1-7.082667-7.04V392.832c0-3.925333 3.2-7.082667 7.082667-7.082667h356.096c3.925333 0 7.082667 3.157333 7.082667 7.082667v49.194667a7.082667 7.082667 0 0 1-7.082667 7.082666H193.536z m0-156.501334a7.082667 7.082667 0 0 1-7.082667-7.04V236.288c0-3.882667 3.2-7.04 7.082667-7.04h488.021333c3.925333 0 7.082667 3.157333 7.082667 7.04v49.237333a7.082667 7.082667 0 0 1-7.082667 7.04H193.536z" p-id="2138" fill="#45657F"></path></svg>