<?xml version="1.0" standalone="no"?><!DOCTYPE svg PUBLIC "-//W3C//DTD SVG 1.1//EN" "http://www.w3.org/Graphics/SVG/1.1/DTD/svg11.dtd"><svg t="1555985440062" class="icon" style="" viewBox="0 0 1024 1024" version="1.1" xmlns="http://www.w3.org/2000/svg" p-id="1939" xmlns:xlink="http://www.w3.org/1999/xlink" width="200" height="200"><defs><style type="text/css"></style></defs><path d="M940.032 102.4H83.968C37.888 102.4 0 140.288 0 186.88v650.752c0 46.592 37.888 83.968 83.968 83.968h855.552c46.592 0 83.968-37.888 83.968-83.968V186.88c0.512-46.592-37.376-84.48-83.456-84.48z m-322.56 145.408c46.592 0 84.48 37.888 84.48 84.48s-37.888 84.48-84.48 84.48-84.48-37.888-84.48-84.48 37.888-84.48 84.48-84.48zM83.968 809.472s69.12-402.432 229.376-402.432c157.184 0 197.12 281.088 307.712 281.088 69.632 0 62.464-126.976 173.056-126.976 79.36 0 130.048 247.808 130.048 247.808l-840.192 0.512z" p-id="1940"></path></svg>