<?xml version="1.0" standalone="no"?><!DOCTYPE svg PUBLIC "-//W3C//DTD SVG 1.1//EN" "http://www.w3.org/Graphics/SVG/1.1/DTD/svg11.dtd"><svg t="1589955512947" class="icon" viewBox="0 0 1024 1024" version="1.1" xmlns="http://www.w3.org/2000/svg" p-id="2141" xmlns:xlink="http://www.w3.org/1999/xlink" width="32" height="32"><defs><style type="text/css"></style></defs><path d="M513.442909 1002.914909A488.634182 488.634182 0 0 0 1002.914909 513.396364c0-180.596364-96.162909-337.92-238.917818-422.446546-46.592-26.205091-72.843636 29.137455-32.023273 55.389091a423.563636 423.563636 0 0 1 209.733818 367.057455c0 235.985455-192.232727 428.264727-428.218181 428.264727-235.985455 0-428.311273-192.232727-428.311273-428.218182a423.563636 423.563636 0 0 1 209.780363-367.104c37.841455-26.251636 14.568727-81.594182-32.069818-55.389091C117.201455 175.522909 21.085091 332.846545 21.085091 513.442909c0 270.941091 221.416727 489.472 492.357818 489.472z m0-981.829818c20.386909 0 40.820364 17.501091 40.820364 37.888v550.632727c0 20.386909-20.433455 37.888-40.820364 37.888-23.272727 0-40.773818-17.501091-40.773818-37.888V58.973091c0-20.386909 17.501091-37.888 40.773818-37.888z" p-id="2142" ></path></svg>