<?xml version="1.0" standalone="no"?><!DOCTYPE svg PUBLIC "-//W3C//DTD SVG 1.1//EN" "http://www.w3.org/Graphics/SVG/1.1/DTD/svg11.dtd"><svg t="1590980399192" class="icon" viewBox="0 0 1024 1024" version="1.1" xmlns="http://www.w3.org/2000/svg" p-id="640" xmlns:xlink="http://www.w3.org/1999/xlink" width="200" height="200"><defs><style type="text/css"></style></defs><path d="M224.37092 447.99944A223.99972 223.99972 0 1 1 448.37064 223.99972 223.99972 223.99972 0 0 1 224.37092 447.99944z m0-319.9996A95.99988 95.99988 0 1 0 320.3708 223.99972 95.99988 95.99988 0 0 0 224.37092 127.99984zM800.3702 1023.99872a223.99972 223.99972 0 1 1 223.99972-223.99972 223.99972 223.99972 0 0 1-223.99972 223.99972z m0-319.9996a95.99988 95.99988 0 1 0 95.99988 95.99988 95.99988 95.99988 0 0 0-95.99988-95.99988zM64.37112 1023.99872a63.99992 63.99992 0 0 1-45.439943-18.559977 63.99992 63.99992 0 0 1 0-90.879886l895.99888-895.99888a63.99992 63.99992 0 1 1 90.879886 90.879886l-895.99888 895.99888A63.99992 63.99992 0 0 1 64.37112 1023.99872z" fill="#383B48" p-id="641"></path></svg>