<?xml version="1.0" encoding="UTF-8"?>
<svg width="60px" height="60px" viewBox="0 0 60 60" version="1.1" xmlns="http://www.w3.org/2000/svg" xmlns:xlink="http://www.w3.org/1999/xlink">
    <!-- Generator: Sketch 61 (89581) - https://sketch.com -->
    <title>Icon2@3x</title>
    <desc>Created with Sketch.</desc>
    <g id="页面-2" stroke="none" stroke-width="1" fill="none" fill-rule="evenodd">
        <g id="系统首页" transform="translate(-719.000000, -136.000000)">
            <g id="1" transform="translate(234.000000, 120.000000)">
                <g id="Total-Order" transform="translate(299.000000, 0.000000)">
                    <g id="Icon2" transform="translate(186.000000, 16.000000)">
                        <path d="M23,60 C10.2974508,60 1.55561363e-15,49.7025492 0,37 L0,23 C-1.55561363e-15,10.2974508 10.2974508,2.33342044e-15 23,0 L37,0 C49.7025492,-2.33342044e-15 60,10.2974508 60,23 L60,37 C60,49.7025492 49.7025492,60 37,60 L23,60 Z" id="Circle-2" fill="#FFD164" opacity="0.209999993"></path>
                        <g id="icon" transform="translate(15.000000, 13.000000)">
                            <path d="M0,11.3164701 L12.9004912,18.7645722 C13.0394036,18.8447733 13.1850623,18.9027046 13.3333333,18.9394739 L13.3333333,33.3847054 L0.920064885,26.0385088 C0.349783865,25.7010154 0,25.0875659 0,24.4249029 L0,11.3164701 Z M30,11.1184665 L30,24.4249029 C30,25.0875659 29.6502161,25.7010154 29.0799351,26.0385088 L16.6666667,33.3847054 L16.6666667,18.8129235 C16.6969108,18.7978151 16.7268876,18.7817016 16.7565565,18.7645722 L30,11.1184665 L30,11.1184665 Z" id="Combined-Shape" fill="#FFC741"></path>
                            <path d="M0.405221909,7.70142332 C0.562796988,7.50243849 0.761684783,7.33426405 0.993563997,7.21076013 L14.118564,0.220099528 C14.6695479,-0.0733665093 15.3304521,-0.0733665093 15.881436,0.220099528 L29.006436,7.21076013 C29.1851826,7.30596446 29.3443248,7.42771319 29.480051,7.56965747 L15.0898899,15.8778209 C14.9952678,15.9324509 14.9080291,15.9949583 14.8285239,16.0640363 C14.7490186,15.9949583 14.66178,15.9324509 14.5671579,15.8778209 L0.405221909,7.70142332 Z" id="Path" fill="#FFD164" opacity="0.659481957"></path>
                        </g>
                    </g>
                </g>
            </g>
        </g>
    </g>
</svg>