<?xml version="1.0" encoding="UTF-8"?>
<svg width="60px" height="60px" viewBox="0 0 60 60" version="1.1" xmlns="http://www.w3.org/2000/svg" xmlns:xlink="http://www.w3.org/1999/xlink">
    <!-- Generator: Sketch 61 (89581) - https://sketch.com -->
    <title>Icon</title>
    <desc>Created with Sketch.</desc>
    <g id="页面-2" stroke="none" stroke-width="1" fill="none" fill-rule="evenodd">
        <g id="系统首页" transform="translate(-1317.000000, -136.000000)" fill="#FF9066">
            <g id="1" transform="translate(234.000000, 120.000000)">
                <g id="Order-Pending" transform="translate(897.000000, 0.000000)">
                    <g id="Icon" transform="translate(186.000000, 16.000000)">
                        <path d="M23,60 C10.2974508,60 1.55561363e-15,49.7025492 0,37 L0,23 C-1.55561363e-15,10.2974508 10.2974508,2.33342044e-15 23,0 L37,0 C49.7025492,-2.33342044e-15 60,10.2974508 60,23 L60,37 C60,49.7025492 49.7025492,60 37,60 L23,60 Z" id="Circle-2" opacity="0.3"></path>
                        <g id="icon" transform="translate(16.000000, 15.000000)">
                            <path d="M13.1296822,8.34718934 L13.5475062,8.34718934 C13.8043819,8.34718934 14.0194647,8.54183658 14.0450248,8.79743748 L14.6666667,15.013856 L14.6666667,15.013856 L19.0814028,17.5365624 C19.2371903,17.6255838 19.3333333,17.7912555 19.3333333,17.9706839 L19.3333333,18.3592308 C19.3333333,18.6353732 19.1094757,18.8592308 18.8333333,18.8592308 C18.7888923,18.8592308 18.7446497,18.8533059 18.7017746,18.8416127 L12.3986612,17.1225818 C12.1672824,17.0594785 12.0132986,16.8409746 12.0316926,16.6018516 L12.631155,8.80884109 C12.6511933,8.54834251 12.8684141,8.34718934 13.1296822,8.34718934 Z" id="Path-107" opacity="0.779999971"></path>
                            <path d="M6.01733907,-0.0772351689 C6.2288764,-0.254736066 6.5442542,-0.227144084 6.72175509,-0.0156067521 L6.72175509,-0.0156067521 L8.51913552,2.1273858 C10.2024553,1.41052645 12.054904,1.01385601 14,1.01385601 C21.7319865,1.01385601 28,7.28186951 28,15.013856 C28,22.6413562 21.9002476,28.8441829 14.312645,29.010434 L14,29.013856 L14,29.013856 C6.2680135,29.013856 0,22.7458425 0,15.013856 C0,13.7006992 0.180792724,12.4297687 0.518844853,11.224598 L3.08641434,11.944805 C2.80896017,12.9339413 2.66666667,13.9630912 2.66666667,15.013856 C2.66666667,21.2730832 7.74077284,26.3471893 14,26.3471893 C20.2592272,26.3471893 25.3333333,21.2730832 25.3333333,15.013856 C25.3333333,8.85242927 20.4165542,3.83937783 14.2925184,3.68422422 L14,3.68052267 L14,3.68052267 C12.7318949,3.68052267 11.4968995,3.88835566 10.3322213,4.2862714 L12.1330448,6.43331723 C12.2023675,6.51593278 12.24312,6.61874811 12.2492217,6.7264223 C12.2648452,7.00212236 12.0540114,7.23828671 11.7783113,7.25391015 L11.7783113,7.25391015 L4.73355552,7.65312407 C4.68508783,7.65587065 4.6364785,7.65154413 4.58925778,7.64028071 C4.32065092,7.57621071 4.15484104,7.30652283 4.21891104,7.03791597 L4.21891104,7.03791597 L5.85237713,0.189778054 C5.87728008,0.0853749765 5.93511798,-0.00824348388 6.01733907,-0.0772351689 Z" id="Combined-Shape" opacity="0.901274182"></path>
                        </g>
                    </g>
                </g>
            </g>
        </g>
    </g>
</svg>