<?xml version="1.0" standalone="no"?><!DOCTYPE svg PUBLIC "-//W3C//DTD SVG 1.1//EN" "http://www.w3.org/Graphics/SVG/1.1/DTD/svg11.dtd"><svg t="1587884014415" class="icon" viewBox="0 0 1024 1024" version="1.1" xmlns="http://www.w3.org/2000/svg" p-id="2035" width="48" height="48" xmlns:xlink="http://www.w3.org/1999/xlink"><defs><style type="text/css"></style></defs><path d="M500.487915 683.510886a340.246081 340.246081 0 0 1-241.344476-99.924901 338.199488 338.199488 0 0 1-73.114534-108.469428 338.455312 338.455312 0 0 1-26.810368-132.875048 340.246081 340.246081 0 0 1 99.924902-241.344476A338.199488 338.199488 0 0 1 367.612866 27.7825 338.455312 338.455312 0 0 1 500.539079 0.972132a340.246081 340.246081 0 0 1 241.344476 99.924901 338.199488 338.199488 0 0 1 73.165699 108.469428c17.805359 42.10865 26.759203 86.775542 26.759203 132.875048a340.246081 340.246081 0 0 1-99.924902 241.344476 340.246081 340.246081 0 0 1-241.344476 99.924901z m0-620.271163a279.308775 279.308775 0 0 0-278.848292 279.001786 279.206446 279.206446 0 0 0 278.848292 278.848292 279.206446 279.206446 0 0 0 278.848291-278.848292 279.308775 279.308775 0 0 0-278.848291-279.001786z" fill="#5B8FC9" p-id="2036"></path><path d="M33.711224 1023.296484a31.210543 31.210543 0 0 1-29.675598-41.136519 522.392855 522.392855 0 0 1 74.495984-143.261508 523.109162 523.109162 0 0 1 113.27892-113.023096 519.322965 519.322965 0 0 1 308.677385-100.692374c111.89747 0 218.627294 34.79208 308.728549 100.692374a525.30925 525.30925 0 0 1 187.72374 256.284604 31.159378 31.159378 0 1 1-59.146537 19.800787 460.585747 460.585747 0 0 0-437.305752-314.35668 460.636912 460.636912 0 0 0-437.254588 314.45901 31.210543 31.210543 0 0 1-29.522103 21.233402z" fill="#5B8FC9" p-id="2037"></path></svg>