<?xml version="1.0" standalone="no"?><!DOCTYPE svg PUBLIC "-//W3C//DTD SVG 1.1//EN" "http://www.w3.org/Graphics/SVG/1.1/DTD/svg11.dtd"><svg t="1588923316927" class="icon" viewBox="0 0 1024 1024" version="1.1" xmlns="http://www.w3.org/2000/svg" p-id="2381" xmlns:xlink="http://www.w3.org/1999/xlink" width="32" height="32"><defs><style type="text/css"></style></defs><path d="M192.350316 202.698105V89.249684c0.053895-17.084632 13.904842-30.935579 31.043368-30.989473H800.121263c17.084632 0 30.935579 13.904842 30.989474 30.989473v113.448421H889.047579v-140.665263C889.047579 27.917474 861.130105 0 827.014737 0H196.500211C162.438737 0 134.521263 27.917474 134.521263 61.978947v140.719158h57.829053z m638.814316 604.752842v123.580632a31.097263 31.097263 0 0 1-30.989474 30.989474H223.393684a31.097263 31.097263 0 0 1-31.043368-30.989474v-123.580632H134.521263v150.797474c0 34.115368 27.917474 62.032842 61.978948 62.032842H827.068632c34.115368 0 61.978947-27.917474 61.978947-61.978947v-150.851369h-57.829053zM269.312 661.611789H210.512842V439.888842A203.506526 203.506526 0 0 1 134.521263 484.513684V431.157895c15.36-5.066105 32.013474-14.551579 50.014316-28.618106 18.000842-14.012632 30.342737-30.396632 37.025684-49.04421h47.750737v308.11621z m328.272842-54.649263v54.649263H391.437474c2.209684-20.641684 8.946526-40.205474 20.102737-58.745263 11.156211-18.485895 33.199158-43.008 66.128842-73.566315 26.516211-24.683789 42.738526-41.498947 48.774736-50.229895 8.084211-12.126316 12.126316-24.144842 12.126316-36.001684 0-13.096421-3.503158-23.174737-10.563368-30.234948-7.060211-7.006316-16.707368-10.563368-29.210948-10.563368-12.234105 0-22.042947 3.664842-29.264842 11.048421-7.275789 7.383579-11.479579 19.671579-12.557473 36.864l-58.637474-5.874526c3.503158-32.336842 14.443789-55.565474 32.875789-69.685895 18.378105-14.066526 41.445053-21.126737 69.039158-21.126737 30.288842 0 54.056421 8.138105 71.410527 24.46821 17.300211 16.330105 25.923368 36.648421 25.923368 60.901053 0.053895 13.473684-2.479158 26.947368-7.437474 39.450947a160.768 160.768 0 0 1-23.552 39.289264c-7.114105 9.054316-19.941053 22.096842-38.480842 39.181473-18.539789 16.976842-30.288842 28.348632-35.247158 33.845895a101.322105 101.322105 0 0 0-12.072421 16.384h116.789895z m87.578947-26.785684l56.966737-6.898526c1.778526 14.551579 6.682947 25.6 14.605474 33.253052a40.205474 40.205474 0 0 0 28.887579 11.533474 39.720421 39.720421 0 0 0 30.666105-13.797053c8.299789-9.216 12.449684-21.665684 12.449684-37.295157 0-14.767158-3.988211-26.516211-11.910736-35.139369a37.995789 37.995789 0 0 0-29.103158-13.042526c-7.545263 0-16.545684 1.509053-27.001263 4.419368l6.467368-47.966316c15.952842 0.431158 28.025263-3.018105 36.432842-10.293894a36.917895 36.917895 0 0 0 12.557474-29.210948 33.522526 33.522526 0 0 0-9.162106-24.737684 33.253053 33.253053 0 0 0-24.522105-9.162105 35.408842 35.408842 0 0 0-25.761684 10.455579c-7.114105 6.952421-11.425684 17.138526-12.934737 30.558316l-54.218105-9.216c3.772632-18.539789 9.431579-33.414737 17.030737-44.517053 7.653053-11.048421 18.216421-19.779368 31.797894-26.138947 13.635368-6.359579 28.887579-9.539368 45.810527-9.539369 28.833684 0 51.954526 9.216 69.470316 27.648 14.336 15.090526 21.557895 32.121263 21.557894 51.092211 0 26.947368-14.767158 48.397474-44.193684 64.458105 17.569684 3.772632 31.636211 12.234105 42.199579 25.330526 10.509474 13.096421 15.791158 28.941474 15.791158 47.481263 0 26.947368-9.862737 49.906526-29.534316 68.877474-19.671579 18.970947-44.139789 28.456421-73.458526 28.456421-27.755789 0-50.768842-7.976421-69.039158-23.929263-18.324211-15.952842-28.887579-36.864-31.797895-62.679579z" p-id="2382" fill="#1B65B9"></path></svg>
