<?xml version="1.0" standalone="no"?><!DOCTYPE svg PUBLIC "-//W3C//DTD SVG 1.1//EN" "http://www.w3.org/Graphics/SVG/1.1/DTD/svg11.dtd"><svg t="1587884026333" class="icon" viewBox="0 0 1024 1024" version="1.1" xmlns="http://www.w3.org/2000/svg" p-id="2185" xmlns:xlink="http://www.w3.org/1999/xlink" width="48" height="48"><defs><style type="text/css"></style></defs><path d="M49.777778 494.250667v479.971555c0 19.626667 15.928889 35.555556 35.555555 35.555556h853.333334c19.626667 0 35.555556-15.928889 35.555555-35.555556V494.193778a35.555556 35.555556 0 0 0-35.555555-35.498667h-853.333334a35.555556 35.555556 0 0 0-35.555555 35.498667z m853.333333 444.416H120.888889V529.749333h782.222222V938.666667z m-36.181333-575.544889A355.555556 355.555556 0 0 0 155.875556 369.208889v124.984889H227.555556V369.777778a284.444444 284.444444 0 0 1 568.888888 0 35.555556 35.555556 0 1 0 70.485334-6.656z" fill="#5B8FC9" p-id="2186"></path></svg>