<?xml version="1.0" standalone="no"?><!DOCTYPE svg PUBLIC "-//W3C//DTD SVG 1.1//EN" "http://www.w3.org/Graphics/SVG/1.1/DTD/svg11.dtd"><svg t="1587884030299" class="icon" viewBox="0 0 1024 1024" version="1.1" xmlns="http://www.w3.org/2000/svg" p-id="2304" xmlns:xlink="http://www.w3.org/1999/xlink" width="48" height="48"><defs><style type="text/css"></style></defs><path d="M904.8576 144.7424c-157.44-17.8176-275.9168-60.416-352.0512-126.6176l-20.0704-17.408-21.6064 15.4112C391.7824 101.376 273.7152 144.5376 160.3072 144.5376H126.6176v471.4496c0 144.5376 127.4368 275.6096 389.5808 400.7424l13.7728 6.6048 14.0288-6.0416c259.328-111.4112 390.7584-246.3744 390.7584-401.3056V148.1728l-29.9008-3.4304z m-37.4272 471.2448c0 122.88-112.9984 235.008-336.0256 333.312-223.9488-109.1584-337.408-221.2864-337.408-333.312V210.8416c110.08-7.168 222.6176-49.152 335.104-125.184 80.7424 61.5424 194.3552 102.6048 338.3296 122.3168v408.0128z" fill="#5B8FC9" p-id="2305"></path><path d="M370.5344 469.3504a33.6896 33.6896 0 1 0-50.4832 44.6464l128.1536 144.9984c13.2608 15.0016 31.744 22.7328 50.3808 22.7328 20.2752 0 39.424-9.1136 52.3264-24.7808l207.872-255.3856a33.6896 33.6896 0 1 0-52.224-42.496L498.688 614.4 370.5344 469.3504z" fill="#5B8FC9" p-id="2306"></path></svg>