<svg xmlns="http://www.w3.org/2000/svg" xmlns:xlink="http://www.w3.org/1999/xlink" fill="none" version="1.1" width="100" height="100" viewBox="0 0 100 100"><defs><clipPath id="master_svg0_15_16"><rect x="0" y="0" width="100" height="100" rx="0"/></clipPath><linearGradient x1="0.696908175945282" y1="-0.12974359095096588" x2="0.4750439931090237" y2="1.2243471980169296" id="master_svg1_15_26"><stop offset="0%" stop-color="#FA816E" stop-opacity="1"/><stop offset="41.472604870796204%" stop-color="#F74A5C" stop-opacity="1"/><stop offset="100%" stop-color="#F51D2C" stop-opacity="1"/></linearGradient><linearGradient x1="0.552905797958374" y1="0.30240023136138916" x2="-0.011689962096274294" y2="0.67748094524159" id="master_svg2_15_23"><stop offset="0%" stop-color="#29CDFF" stop-opacity="1"/><stop offset="36.24463677406311%" stop-color="#148EFF" stop-opacity="1"/><stop offset="100%" stop-color="#0A60FF" stop-opacity="1"/></linearGradient><linearGradient x1="0.5" y1="0" x2="0.40112216980036397" y2="1.1742942637447706" id="master_svg3_15_20"><stop offset="0%" stop-color="#4285EB" stop-opacity="1"/><stop offset="100%" stop-color="#2EC7FF" stop-opacity="1"/></linearGradient></defs><g><g clip-path="url(#master_svg0_15_16)"><g><g transform="matrix(0,1,-1,0,128.38507080078125,1.3009490966796875)"><path d="M64.69695375205077,90.04532994873047C66.12390785205078,91.47199394873047,68.43745515205079,91.47199394873047,69.86440945205078,90.04532994873047L79.03075785205078,80.88083794873047C80.62410185205079,79.28782094873047,80.62410185205079,76.71482494873047,79.03094385205078,75.12199194873047L69.78469225205077,65.91039584873047C68.35435965205077,64.48542385873047,66.04007265205078,64.48747908873047,64.61227515205078,65.91498784873046C63.18532103205078,67.34165384873047,63.18532103205078,69.65473504873047,64.61227515205078,71.08139894873047L70.85724495205078,77.32510194873046C71.25382805205078,77.72160194873047,71.25382805205078,78.32337194873047,70.85724495205078,78.71987294873047L64.69695375205077,84.87891394873047C63.26999962205078,86.30557994873047,63.26999962205078,88.61865994873047,64.69695375205077,90.04532994873047Z" fill="url(#master_svg1_15_26)" fill-opacity="1"/></g><g><path d="M45.071075,20.462244300000002C50.317059,17.4434862,57.016956,19.24900955,60.035713,24.4949932L87.180679,71.667404C88.863739,74.592205,87.871445,78.327076,84.958672,80.030849C84.949287,80.036343,84.939903,80.041798,84.930489,80.047234C82.030266,81.722801,78.320847,80.73002600000001,76.64527100000001,77.829803L52.21682,35.546923C52.036407,35.234653,51.776993,34.975366,51.464634,34.795109C50.481709,34.227886,49.22506,34.56488,48.657841,35.547808L24.197922,77.933762C24.188855,77.949471,24.179718,77.965141,24.170509,77.98077C22.496816600000002,80.820942,18.837607900000002,81.76656,15.9974368,80.09286900000001C13.12257836,78.398735,12.14775169,74.705757,13.81193882,71.81346500000001L41.038097,24.4953909C42.002892,22.8186166,43.394342,21.4271069,45.071075,20.462244300000002Z" fill-rule="evenodd" fill="url(#master_svg2_15_23)" fill-opacity="1"/></g><g><path d="M56.65453717255859,29.786590576171875C60.05306537255859,29.786590576171875,62.594127372558596,31.106560476171875,64.2777233725586,33.74650027617187L86.61734737255858,72.63262957617187C88.29955337255859,75.56081357617188,87.3005633725586,79.29788257617187,84.3816263725586,80.99607857617187C84.37327937255859,81.00094257617187,84.36491437255859,81.00577557617189,84.3565443725586,81.01059357617189C81.44811637255859,82.68416957617188,77.73366737255859,81.68312457617188,76.0600893725586,78.77469657617188L55.2176894725586,42.553740576171876L51.6441945725586,36.51258137617187C51.45962977255859,36.200564876171875,51.19580437255859,35.942928776171875,50.87949277255859,35.765822876171875C49.889291872558594,35.21139527617188,48.63712227255859,35.564660076171876,48.082697242558595,36.55486197617188L48.056419372558594,36.601793776171874C50.389970572558596,32.05832457617188,53.256010072558595,29.786590576171875,56.65453717255859,29.786590576171875Z" fill-rule="evenodd" fill="url(#master_svg3_15_20)" fill-opacity="1"/></g></g></g></g></svg>