<svg xmlns="http://www.w3.org/2000/svg" width="1em" height="1em" viewBox="0 0 24 24"><path fill="currentColor" d="M3.68 11.333h-.75zm0 1.667l-.528.532a.75.75 0 0 0 1.056 0zm2.208-1.134A.75.75 0 1 0 4.83 10.8zM2.528 10.8a.75.75 0 0 0-1.056 1.065zm16.088-3.408a.75.75 0 1 0 1.277-.786zM12.079 2.25c-5.047 0-9.15 4.061-9.15 9.083h1.5c0-4.182 3.42-7.583 7.65-7.583zm-9.15 9.083V13h1.5v-1.667zm1.28 2.2l1.679-1.667L4.83 10.8l-1.68 1.667zm0-1.065L2.528 10.8l-1.057 1.065l1.68 1.666zm15.684-5.86A9.16 9.16 0 0 0 12.08 2.25v1.5a7.66 7.66 0 0 1 6.537 3.643zM20.314 11l.527-.533a.75.75 0 0 0-1.054 0zM18.1 12.133a.75.75 0 0 0 1.055 1.067zm3.373 1.067a.75.75 0 1 0 1.054-1.067zM5.318 16.606a.75.75 0 1 0-1.277.788zm6.565 5.144c5.062 0 9.18-4.058 9.18-9.083h-1.5c0 4.18-3.43 7.583-7.68 7.583zm9.18-9.083V11h-1.5v1.667zm-1.276-2.2L18.1 12.133l1.055 1.067l1.686-1.667zm0 1.066l1.686 1.667l1.054-1.067l-1.686-1.666zM4.04 17.393a9.2 9.2 0 0 0 7.842 4.357v-1.5a7.7 7.7 0 0 1-6.565-3.644z"/></svg>
