<?xml version="1.0" standalone="no"?><!DOCTYPE svg PUBLIC "-//W3C//DTD SVG 1.1//EN" "http://www.w3.org/Graphics/SVG/1.1/DTD/svg11.dtd"><svg t="1589271287315" class="icon" viewBox="0 0 1024 1024" version="1.1" xmlns="http://www.w3.org/2000/svg" p-id="1983" width="64" height="64" xmlns:xlink="http://www.w3.org/1999/xlink"><defs><style type="text/css"></style></defs><path d="M203.1 599.3c-48.9 0-88.6-39.6-88.6-88.5s39.6-88.5 88.6-88.5c48.9 0 88.6 39.6 88.6 88.5-0.1 48.9-39.7 88.5-88.6 88.5z m309.9 0c-48.9 0-88.6-39.6-88.6-88.5s39.6-88.5 88.6-88.5c48.9 0 88.6 39.6 88.6 88.5s-39.7 88.5-88.6 88.5z m309.9 0c-48.9 0-88.6-39.6-88.6-88.5s39.6-88.5 88.6-88.5c48.9 0 88.6 39.6 88.6 88.5s-39.6 88.5-88.6 88.5z" p-id="1984" fill="#91939a"></path></svg>