<?xml version="1.0" standalone="no"?><!DOCTYPE svg PUBLIC "-//W3C//DTD SVG 1.1//EN" "http://www.w3.org/Graphics/SVG/1.1/DTD/svg11.dtd"><svg t="1589279146592" class="icon" viewBox="0 0 1024 1024" version="1.1" xmlns="http://www.w3.org/2000/svg" p-id="1961" xmlns:xlink="http://www.w3.org/1999/xlink" width="64" height="64"><defs><style type="text/css"></style></defs><path d="M711.871126 512.00224h182.527201v365.6944h94.463587V1024H39.810066v-146.30336h672.06106V512.00224z m-109.439522 0v365.6944h-182.399202V512.00224H602.431604zM310.400882 512.00224v365.6944H127.873681V512.00224H310.400882zM512 0.00448c3.839983 0 7.743966 0.767997 11.32795 2.36799l4.991979 2.751988 483.453884 346.238485a26.559884 26.559884 0 0 1 9.663958 30.719865 27.903878 27.903878 0 0 1-20.223911 17.983922l-5.759975 0.639997H28.546115a25.919887 25.919887 0 0 1-26.047886-18.687918 26.367885 26.367885 0 0 1 5.311977-26.623884L12.162187 351.362943 495.616072 5.124458A28.031877 28.031877 0 0 1 512 0.00448z" p-id="1962" fill="#0064BF"></path></svg>