<?xml version="1.0" standalone="no"?><!DOCTYPE svg PUBLIC "-//W3C//DTD SVG 1.1//EN" "http://www.w3.org/Graphics/SVG/1.1/DTD/svg11.dtd"><svg t="1589699877718" class="icon" viewBox="0 0 1024 1024" version="1.1" xmlns="http://www.w3.org/2000/svg" p-id="2139" xmlns:xlink="http://www.w3.org/1999/xlink" width="32" height="32"><defs><style type="text/css"></style></defs><path d="M512 0a512 512 0 0 0-512 512 512 512 0 0 0 512 512 512 512 0 0 0 512-512 512 512 0 0 0-512-512z m0 192a31.963429 31.963429 0 1 1 0 63.926857 31.963429 31.963429 0 0 1 0-63.926857z m95.524571 640H416.475429a31.963429 31.963429 0 1 1 0-64h62.025142V445.44h-62.976a31.963429 31.963429 0 1 1 0-63.926857h94.939429c17.700571 0 32.036571 14.262857 32.036571 31.963428V768h65.024c17.700571 0 32.914286 14.336 32.914286 32.036571 0 17.627429-15.213714 31.963429-32.914286 31.963429z" p-id="2140" fill="#F56C6C"></path></svg>